<?xml version="1.0" encoding="UTF-8"?>
<svg id="Layer_1" data-name="Layer 1" xmlns="http://www.w3.org/2000/svg" width="30" height="30" viewBox="0 0 30 30">
  <defs>
    <style>
      .cls-1 {
        fill: #fff;
      }
    </style>
  </defs>
  <path d="M0,15l7.59-1.17L.73,10.36l7.59,1.23L2.86,6.18l6.83,3.51L6.18,2.86l5.41,5.45L10.37,.73l3.46,6.86L15,0l1.17,7.59L19.63,.73l-1.23,7.58,5.41-5.45-3.52,6.83,6.83-3.51-5.45,5.41,7.58-1.23-6.86,3.46,7.59,1.17-7.59,1.17,6.86,3.46-7.58-1.23,5.45,5.41-6.83-3.51,3.52,6.83-5.41-5.45,1.23,7.58-3.46-6.86-1.17,7.59-1.17-7.59-3.46,6.86,1.23-7.58-5.41,5.45,3.51-6.83-6.83,3.51,5.46-5.41-7.59,1.23,6.86-3.46L0,15Z"/>
  <circle class="cls-1" cx="15" cy="15" r="2"/>
</svg>