<?xml version="1.0" encoding="UTF-8"?>
<svg id="Layer_1" data-name="Layer 1" xmlns="http://www.w3.org/2000/svg" width="30" height="30" viewBox="0 0 30 30">
  <defs>
    <style>
      .cls-1 {
        fill: #fff;
      }
    </style>
  </defs>
  <path d="M0,15l9.28-.36L.12,13.12l9.25,.81L.47,11.26l9.08,1.96L1.05,9.47l8.76,3.09L1.86,7.76l8.31,4.16L2.86,6.17l7.72,5.17L4.07,4.71l7.01,6.1L5.44,3.42l6.19,6.94L6.96,2.31l5.28,7.66L8.61,1.4l4.28,8.26L10.36,.71l3.21,8.73L12.19,.24l2.09,9.07L14.06,0l.94,9.26L15.94,0l-.22,9.3L17.81,.24l-1.39,9.2L19.64,.71l-2.53,8.96L21.39,1.4l-3.63,8.57,5.28-7.66-4.67,8.05,6.19-6.94-5.64,7.4,7.01-6.1-6.52,6.63,7.72-5.17-7.3,5.76,8.31-4.16-7.96,4.8,8.76-3.09-8.5,3.76,9.08-1.96-8.9,2.66,9.25-.81-9.16,1.52,9.28,.36-9.28,.36,9.16,1.52-9.25-.81,8.9,2.66-9.08-1.96,8.5,3.76-8.76-3.09,7.96,4.8-8.31-4.16,7.3,5.76-7.72-5.17,6.52,6.63-7.01-6.1,5.64,7.4-6.19-6.94,4.67,8.05-5.28-7.66,3.63,8.57-4.28-8.26,2.53,8.96-3.21-8.73,1.39,9.2-2.09-9.07,.22,9.3-.94-9.26-.94,9.26,.22-9.3-2.09,9.07,1.39-9.2-3.21,8.73,2.53-8.96-4.28,8.26,3.63-8.57-5.28,7.66,4.67-8.05-6.19,6.94,5.64-7.4-7.01,6.1,6.52-6.63-7.72,5.17,7.3-5.76L1.86,22.24l7.96-4.8L1.05,20.53l8.5-3.76L.47,18.74l8.9-2.66L.12,16.88l9.16-1.52-9.28-.36Z"/>
  <circle class="cls-1" cx="15" cy="15" r="2"/>
</svg>