<?xml version="1.0" encoding="UTF-8"?>
<svg id="Layer_1" data-name="Layer 1" xmlns="http://www.w3.org/2000/svg" width="305" height="188" viewBox="0 0 305 188">
  <defs>
    <style>
      .cls-1 {
        fill: #f0f;
        fill-rule: evenodd;
      }
    </style>
  </defs>
  <path class="cls-1" d="M305,174.04l-.38,.33c-1.53,7.77-8.25,13.63-16.3,13.63-9.19,0-16.63-7.62-16.63-17.01,0-1.43,.17-2.82,.5-4.15L152.73,33.25,32.86,167.25c.26,1.2,.4,2.46,.4,3.74,0,9.4-7.45,17.01-16.63,17.01-8.06,0-14.79-5.87-16.31-13.65l-.12-.1,.08-.1c-.19-1.02-.29-2.08-.29-3.16,0-9.39,7.45-17.01,16.63-17.01,.07,0,.14,0,.2,0L138.77,17.64l-3.27-3.66L151.29,.43l1.44,1.61,1.82-2.04,15.79,13.55-3.66,4.1,121.86,136.33c9.08,.12,16.41,7.69,16.41,17.01,0,.93-.07,1.84-.21,2.73l.27,.32Z"/>
</svg>