<?xml version="1.0" encoding="UTF-8"?>
<svg id="Layer_1" data-name="Layer 1" xmlns="http://www.w3.org/2000/svg" width="70" height="25" viewBox="0 0 70 25">
  <defs>
    <style>
      .cls-1 {
        fill-rule: evenodd;
      }
    </style>
  </defs>
  <path class="cls-1" d="M.06,22.24l-.02,.02,.02,.02c.3,1.55,1.64,2.72,3.24,2.72,1.83,0,3.3-1.52,3.3-3.39,0-.26-.03-.51-.08-.75L21.37,2.74,18.23,.04,3.34,18.23s-.03,0-.04,0c-1.83,0-3.3,1.52-3.3,3.39,0,.22,.02,.43,.06,.63Z"/>
  <path class="cls-1" d="M69.95,22.16l.05,.06-.08,.07c-.3,1.55-1.64,2.71-3.24,2.71-1.83,0-3.3-1.52-3.3-3.39,0-.28,.03-.56,.1-.83L48.67,2.7l3.14-2.7,14.92,18.23c1.8,.02,3.26,1.53,3.26,3.39,0,.19-.01,.37-.04,.54Z"/>
</svg>