<?xml version="1.0" encoding="UTF-8"?>
<svg id="Layer_1" data-name="Layer 1" xmlns="http://www.w3.org/2000/svg" width="305" height="188" viewBox="0 0 305 188">
  <defs>
    <style>
      .cls-1 {
        fill: #f0f;
        fill-rule: evenodd;
      }
    </style>
  </defs>
  <path class="cls-1" d="M305,13.96l-.38-.33C303.08,5.85,296.37,0,288.31,0c-9.19,0-16.63,7.62-16.63,17.01,0,1.43,.17,2.82,.5,4.15l-119.45,133.59L32.86,20.75c.26-1.2,.4-2.46,.4-3.74C33.27,7.62,25.82,0,16.63,0,8.57,0,1.85,5.87,.32,13.65l-.12,.1,.08,.1c-.19,1.02-.29,2.08-.29,3.16,0,9.39,7.45,17.01,16.63,17.01,.07,0,.14,0,.2,0l121.94,136.33-3.27,3.66,15.79,13.55,1.44-1.61,1.82,2.04,15.79-13.55-3.66-4.1L288.54,34.02c9.08-.12,16.41-7.69,16.41-17.01,0-.93-.07-1.84-.21-2.73l.27-.32Z"/>
</svg>