<?xml version="1.0" encoding="UTF-8"?>
<svg id="Layer_1" data-name="Layer 1" xmlns="http://www.w3.org/2000/svg" width="70" height="25" viewBox="0 0 70 25">
  <defs>
    <style>
      .cls-1 {
        fill-rule: evenodd;
      }
    </style>
  </defs>
  <path class="cls-1" d="M.06,2.76l-.02-.02,.02-.02C.37,1.17,1.7,0,3.3,0c1.83,0,3.3,1.52,3.3,3.39,0,.26-.03,.51-.08,.75l14.84,18.13-3.14,2.7L3.34,6.77s-.03,0-.04,0c-1.83,0-3.3-1.52-3.3-3.39,0-.22,.02-.43,.06-.63Z"/>
  <path class="cls-1" d="M69.95,2.84l.05-.06-.08-.07C69.62,1.17,68.28,0,66.68,0c-1.83,0-3.3,1.52-3.3,3.39,0,.28,.03,.56,.1,.83l-14.81,18.09,3.14,2.7,14.92-18.23c1.8-.02,3.26-1.53,3.26-3.39,0-.19-.01-.37-.04-.54Z"/>
</svg>