<?xml version="1.0" encoding="utf-8"?>
<!-- Generator: Adobe Illustrator 26.4.1, SVG Export Plug-In . SVG Version: 6.00 Build 0)  -->
<svg version="1.1" id="Layer_1" xmlns="http://www.w3.org/2000/svg" xmlns:xlink="http://www.w3.org/1999/xlink" x="0px" y="0px"
	 viewBox="0 0 1920 1080" style="enable-background:new 0 0 1920 1080;" xml:space="preserve">
<style type="text/css">
	.st0{fill:none;stroke:#04FF00;stroke-width:20;stroke-miterlimit:10;}
	.st1{fill:none;stroke:#04FF00;stroke-width:20;stroke-linecap:square;stroke-miterlimit:10;}
	.st2{fill:#04FF00;stroke:#04FF00;stroke-miterlimit:10;}
</style>
<g>
	<path class="st0" d="M1027.14,506.33c-23.48,0-42.52-19.04-42.52-42.52s19.04-42.52,42.52-42.52"/>
	<line class="st0" x1="984.62" y1="463.81" x2="1019.43" y2="463.81"/>
</g>
<g>
	<path class="st1" d="M1215.04,506.99"/>
	<path class="st1" d="M1130,421.95v40.29c0,23.48,19.04,42.52,42.52,42.52c23.48,0,42.52-19.04,42.52-42.52v-40.29"/>
	<line class="st1" x1="1215.04" y1="462.24" x2="1215.04" y2="506.99"/>
</g>
<circle class="st0" cx="914.57" cy="464.47" r="42.52"/>
<polyline class="st0" points="872.05,464.47 872.05,382.7 957.09,382.7 "/>
<path class="st2" d="M914.57,500.83L914.57,500.83c-20.08-20.08-20.08-52.64,0-72.72l0,0v0
	C934.65,448.19,934.65,480.75,914.57,500.83L914.57,500.83z"/>
<polygon class="st2" points="905.17,500.83 881.45,500.83 881.45,530.92 "/>
<polygon class="st2" points="927.75,500.83 951.47,500.83 951.47,530.92 "/>
<path class="st0" d="M747.48,506.33c-23.48,0-42.52-19.04-42.52-42.52s19.04-42.52,42.52-42.52"/>
<g>
	<path class="st0" d="M1060.56,505.62c23.48,0,42.52-19.04,42.52-42.52s-19.04-42.52-42.52-42.52"/>
	<line class="st1" x1="1050.63" y1="420.58" x2="1050.63" y2="544.87"/>
</g>
<circle class="st2" cx="801.86" cy="463.81" r="14.93"/>
<g>
	<circle class="st0" cx="801.86" cy="463.81" r="42.52"/>
</g>
<circle class="st0" cx="1267.51" cy="615.53" r="42.52"/>
<line class="st1" x1="1310.03" y1="658.05" x2="1310.03" y2="625.58"/>
<circle class="st2" cx="1268.12" cy="615.53" r="14.93"/>
<path class="st0" d="M1000.88,658.05c-23.48,0-42.52-19.04-42.52-42.52s19.04-42.52,42.52-42.52"/>
<g>
	<path class="st1" d="M609.97,658.05v-42.52c0-23.48,19.04-42.52,42.52-42.52l0,0v85.04"/>
	<path class="st1" d="M652.49,658.05v-42.52c0-23.48,19.04-42.52,42.52-42.52h0v85.04"/>
</g>
<g>
	<path class="st1" d="M1111.28,658.05v-42.52c0-23.48-19.04-42.52-42.52-42.52h0v85.04"/>
	<path class="st1" d="M1068.76,658.05v-42.52c0-23.48-19.04-42.52-42.52-42.52l0,0v85.04"/>
</g>
<g>
	<path class="st0" d="M1151.83,658.05c23.48,0,42.52-19.04,42.52-42.52s-19.04-42.52-42.52-42.52"/>
	<line class="st1" x1="1141.91" y1="573.01" x2="1141.91" y2="697.3"/>
</g>
<g>
	<line class="st1" x1="845.03" y1="573.01" x2="845.03" y2="658.05"/>
	<line class="st1" x1="930.07" y1="573.01" x2="930.07" y2="658.05"/>
	<line class="st1" x1="845.03" y1="615.53" x2="930.07" y2="615.53"/>
</g>
<circle class="st2" cx="770.02" cy="615.53" r="14.93"/>
<g>
	<circle class="st0" cx="770.02" cy="615.53" r="42.52"/>
</g>
</svg>
