<?xml version="1.0" encoding="utf-8"?>
<!-- Generator: Adobe Illustrator 26.4.1, SVG Export Plug-In . SVG Version: 6.00 Build 0)  -->
<svg version="1.1" id="Layer_1" xmlns="http://www.w3.org/2000/svg" xmlns:xlink="http://www.w3.org/1999/xlink" x="0px" y="0px"
	 viewBox="0 0 650 200" style="enable-background:new 0 0 650 200;" xml:space="preserve">
<style type="text/css">
	.st0{fill:#F39200;}
	.st1{enable-background:new    ;}
	.st2{fill:#93278F;}
	.st3{fill:#FFFFFF;}
	.st4{fill:none;}
</style>
<path class="st0" d="M28.4,0h593.2C637.3,0,650,12.7,650,28.4v143.2c0,15.7-12.7,28.4-28.4,28.4H28.4C12.7,200,0,187.3,0,171.6V28.4
	C0,12.7,12.7,0,28.4,0z"/>
<g class="st1">
	<path class="st2" d="M257,114.8c-1.3-0.7-2.3-1.6-3-2.8c-0.7-1.2-1.1-2.5-1.1-4.1c0-1.5,0.4-2.9,1.1-4.1c0.7-1.2,1.7-2.1,3-2.8
		c1.3-0.7,2.7-1,4.3-1c1.5,0,2.8,0.3,3.9,0.8c1.1,0.5,2.1,1.3,2.8,2.2l-3.2,2.9c-0.9-1.2-2-1.8-3.3-1.8c-1.1,0-1.9,0.3-2.6,1
		c-0.6,0.7-1,1.6-1,2.7c0,1.1,0.3,2.1,1,2.7c0.6,0.7,1.5,1,2.6,1c1.3,0,2.3-0.6,3.3-1.8l3.2,2.9c-0.7,1-1.7,1.7-2.8,2.2
		c-1.1,0.5-2.4,0.8-3.9,0.8C259.7,115.8,258.3,115.4,257,114.8z"/>
	<path class="st2" d="M288.3,104.8c0.8,0.9,1.3,2.2,1.3,3.9v6.7h-4.8v-5.9c0-1.3-0.4-2-1.3-2c-0.5,0-0.8,0.2-1.1,0.5
		c-0.3,0.3-0.4,0.9-0.4,1.6v5.7h-4.8v-5.9c0-1.3-0.4-2-1.3-2c-0.5,0-0.8,0.2-1.1,0.5c-0.3,0.3-0.4,0.9-0.4,1.6v5.7h-4.8v-11.7h4.6
		v1.1c0.9-0.9,2-1.3,3.3-1.3c0.8,0,1.5,0.1,2.1,0.4c0.6,0.3,1.1,0.7,1.5,1.3c0.5-0.6,1-1,1.7-1.3c0.7-0.3,1.4-0.5,2.2-0.5
		C286.3,103.5,287.5,103.9,288.3,104.8z"/>
	<path class="st2" d="M304.3,103.7v9.4c0,2.2-0.6,3.9-1.9,5c-1.2,1.1-3,1.7-5.2,1.7c-1.2,0-2.2-0.1-3.2-0.4c-1-0.3-1.9-0.6-2.6-1.1
		l1.6-3.3c0.5,0.3,1,0.6,1.7,0.8c0.7,0.2,1.4,0.3,2,0.3c1,0,1.7-0.2,2.1-0.6c0.4-0.4,0.7-1,0.7-1.8v-0.1c-0.8,0.7-1.9,1.1-3.1,1.1
		c-1.5,0-2.7-0.5-3.6-1.4c-0.9-0.9-1.4-2.3-1.4-4.1v-5.6h4.8v4.8c0,0.8,0.1,1.4,0.4,1.7c0.3,0.3,0.6,0.5,1.1,0.5
		c0.5,0,0.9-0.2,1.2-0.6c0.3-0.4,0.5-1,0.5-1.8v-4.7H304.3z"/>
	<path class="st2" d="M319.5,103.7v9.4c0,2.2-0.6,3.9-1.9,5c-1.2,1.1-3,1.7-5.3,1.7c-1.2,0-2.3-0.1-3.3-0.4c-1-0.3-1.9-0.6-2.6-1.1
		l1.6-3.3c0.5,0.3,1,0.6,1.7,0.8c0.7,0.2,1.4,0.3,2,0.3c1,0,1.7-0.2,2.1-0.6c0.4-0.4,0.7-1,0.7-1.8v-0.2c-0.7,0.8-1.8,1.2-3.2,1.2
		c-1,0-1.9-0.2-2.8-0.7c-0.9-0.5-1.6-1.1-2.1-2s-0.8-1.9-0.8-3s0.3-2.1,0.8-3s1.2-1.5,2.1-2c0.9-0.5,1.8-0.7,2.8-0.7
		c1.6,0,2.8,0.5,3.5,1.5v-1.3H319.5z M314.1,110.5c0.4-0.3,0.6-0.8,0.6-1.4c0-0.6-0.2-1-0.6-1.3c-0.4-0.3-0.9-0.5-1.4-0.5
		c-0.6,0-1.1,0.2-1.4,0.5c-0.4,0.3-0.6,0.8-0.6,1.3c0,0.6,0.2,1,0.6,1.4s0.9,0.5,1.4,0.5S313.7,110.8,314.1,110.5z"/>
	<path class="st2" d="M329.6,111.9c0.3-0.1,0.7-0.3,1.1-0.7l2.5,2.5c-1.2,1.3-2.9,1.9-5.1,1.9c-1.4,0-2.7-0.3-3.7-0.8
		c-1.1-0.5-1.9-1.2-2.5-2.2c-0.6-0.9-0.9-2-0.9-3.1c0-1.2,0.3-2.2,0.9-3.1c0.6-0.9,1.4-1.6,2.4-2.2c1-0.5,2.2-0.8,3.4-0.8
		c1.2,0,2.2,0.2,3.2,0.7c1,0.5,1.7,1.2,2.3,2.1s0.9,2,0.9,3.2l-8,1.5c0.4,0.7,1.1,1,2.2,1C328.8,112.1,329.2,112,329.6,111.9z
		 M326.4,107.3c-0.4,0.3-0.6,0.8-0.6,1.5l3.8-0.7c-0.1-0.4-0.3-0.7-0.7-0.9c-0.3-0.2-0.7-0.3-1.1-0.3
		C327.3,106.8,326.8,107,326.4,107.3z"/>
	<path class="st2" d="M335.7,103.7h4.8v4.1h3.3v-4.1h4.8v11.7h-4.8v-3.8h-3.3v3.8h-4.8V103.7z"/>
	<path class="st2" d="M369.9,104.8c0.8,0.9,1.3,2.2,1.3,3.9v6.7h-4.8v-5.9c0-1.3-0.4-2-1.3-2c-0.5,0-0.8,0.2-1.1,0.5
		s-0.4,0.9-0.4,1.6v5.7h-4.8v-5.9c0-1.3-0.4-2-1.3-2c-0.5,0-0.8,0.2-1.1,0.5s-0.4,0.9-0.4,1.6v5.7H351v-11.7h4.6v1.1
		c0.9-0.9,2-1.3,3.3-1.3c0.8,0,1.5,0.1,2.1,0.4c0.6,0.3,1.1,0.7,1.5,1.3c0.5-0.6,1-1,1.7-1.3s1.4-0.5,2.2-0.5
		C367.9,103.5,369,103.9,369.9,104.8z"/>
	<path class="st2" d="M373.2,108.2c-0.5-0.5-0.8-1.2-0.8-2s0.3-1.5,0.8-2c0.5-0.5,1.2-0.8,2-0.8s1.5,0.3,2,0.8
		c0.5,0.5,0.8,1.2,0.8,2s-0.3,1.5-0.8,2c-0.5,0.5-1.2,0.8-2,0.8S373.8,108.8,373.2,108.2z M373.2,114.9c-0.5-0.5-0.8-1.2-0.8-2
		s0.3-1.5,0.8-2s1.2-0.8,2-0.8s1.5,0.3,2,0.8c0.5,0.5,0.8,1.2,0.8,2s-0.3,1.5-0.8,2c-0.5,0.5-1.2,0.8-2,0.8S373.8,115.4,373.2,114.9
		z"/>
	<path class="st2" d="M403.6,111.5v6.9H399v-2.9h-9v2.9h-4.6v-6.9h1.8v-4.4c0-1.5,0.3-2.7,0.9-3.8c0.6-1.1,1.5-1.9,2.6-2.4
		c1.1-0.6,2.4-0.8,3.9-0.8s2.7,0.3,3.9,0.8c1.1,0.6,2,1.4,2.6,2.4c0.6,1.1,0.9,2.3,0.9,3.8v4.4H403.6z M396.8,111.5v-4.8
		c0-0.8-0.2-1.5-0.6-1.9c-0.4-0.4-1-0.6-1.7-0.6c-0.7,0-1.3,0.2-1.7,0.6c-0.4,0.4-0.6,1.1-0.6,1.9v4.8H396.8z"/>
	<path class="st2" d="M416.7,103.7v11.7h-4.3v-3h-1.2l-1.9,3h-5.1l2.5-3.7c-0.7-0.4-1.3-0.8-1.7-1.4c-0.4-0.6-0.6-1.3-0.6-2.1
		c0-1.4,0.5-2.5,1.6-3.3c1.1-0.8,2.6-1.2,4.5-1.2H416.7z M409.4,108.4c0,0.4,0.1,0.6,0.3,0.8c0.2,0.2,0.5,0.2,0.9,0.2h1.8v-2h-1.8
		C409.8,107.5,409.4,107.8,409.4,108.4z"/>
	<path class="st2" d="M432,103.7v9.4c0,2.2-0.6,3.9-1.9,5c-1.2,1.1-3,1.7-5.3,1.7c-1.2,0-2.3-0.1-3.3-0.4c-1-0.3-1.9-0.6-2.6-1.1
		l1.6-3.3c0.5,0.3,1,0.6,1.7,0.8c0.7,0.2,1.4,0.3,2,0.3c1,0,1.7-0.2,2.1-0.6c0.4-0.4,0.7-1,0.7-1.8v-0.2c-0.7,0.8-1.8,1.2-3.2,1.2
		c-1,0-1.9-0.2-2.8-0.7c-0.9-0.5-1.6-1.1-2.1-2c-0.5-0.9-0.8-1.9-0.8-3s0.3-2.1,0.8-3c0.5-0.9,1.2-1.5,2.1-2
		c0.9-0.5,1.8-0.7,2.8-0.7c1.6,0,2.8,0.5,3.5,1.5v-1.3H432z M426.6,110.5c0.4-0.3,0.6-0.8,0.6-1.4c0-0.6-0.2-1-0.6-1.3
		s-0.9-0.5-1.4-0.5c-0.6,0-1.1,0.2-1.4,0.5c-0.4,0.3-0.6,0.8-0.6,1.3c0,0.6,0.2,1,0.6,1.4s0.9,0.5,1.4,0.5S426.2,110.8,426.6,110.5z
		"/>
	<path class="st2" d="M446.1,103.7v11.7h-4.8v-4c-0.7,0.4-1.6,0.6-2.7,0.6c-1.7,0-3-0.4-3.8-1.1c-0.8-0.8-1.2-2-1.2-3.6v-3.6h4.8
		v3.3c0,0.6,0.1,1,0.3,1.2c0.2,0.2,0.6,0.3,1,0.3c0.6,0,1.1-0.1,1.5-0.3v-4.5H446.1z"/>
	<path class="st2" d="M456.2,111.9c0.3-0.1,0.7-0.3,1.1-0.7l2.5,2.5c-1.2,1.3-2.9,1.9-5.1,1.9c-1.4,0-2.7-0.3-3.7-0.8
		c-1.1-0.5-1.9-1.2-2.5-2.2c-0.6-0.9-0.9-2-0.9-3.1c0-1.2,0.3-2.2,0.9-3.1c0.6-0.9,1.4-1.6,2.4-2.2c1-0.5,2.2-0.8,3.4-0.8
		c1.2,0,2.2,0.2,3.2,0.7c1,0.5,1.7,1.2,2.3,2.1s0.9,2,0.9,3.2l-8,1.5c0.4,0.7,1.1,1,2.2,1C455.5,112.1,455.9,112,456.2,111.9z
		 M453.1,107.3c-0.4,0.3-0.6,0.8-0.6,1.5l3.8-0.7c-0.1-0.4-0.3-0.7-0.7-0.9c-0.3-0.2-0.7-0.3-1.1-0.3
		C453.9,106.8,453.4,107,453.1,107.3z"/>
	<path class="st2" d="M462.4,103.7h4.8v4.1h3.3v-4.1h4.8v11.7h-4.8v-3.8h-3.3v3.8h-4.8V103.7z"/>
</g>
<g class="st1">
	<path class="st2" d="M483.4,111.5h-0.9v3.9h-4.8v-11.7h4.8v4.1h1l2.6-4.1h5.1l-3.8,5.6l4,6.1h-5.7L483.4,111.5z"/>
</g>
<g class="st1">
	<path class="st2" d="M494.7,114.9c-1-0.5-1.8-1.2-2.4-2.2s-0.9-2-0.9-3.1c0-1.2,0.3-2.2,0.9-3.1c0.6-0.9,1.4-1.6,2.4-2.2
		c1-0.5,2.2-0.8,3.5-0.8c1.3,0,2.5,0.3,3.5,0.8s1.8,1.2,2.4,2.2c0.6,0.9,0.9,2,0.9,3.1c0,1.2-0.3,2.2-0.9,3.1s-1.4,1.6-2.4,2.2
		c-1,0.5-2.2,0.8-3.5,0.8C496.9,115.6,495.8,115.4,494.7,114.9z M499.6,111.3c0.4-0.4,0.5-1,0.5-1.7s-0.2-1.3-0.5-1.7
		c-0.4-0.4-0.8-0.6-1.4-0.6c-0.6,0-1,0.2-1.4,0.6c-0.4,0.4-0.5,1-0.5,1.7s0.2,1.3,0.5,1.7s0.8,0.6,1.4,0.6
		C498.8,111.9,499.2,111.7,499.6,111.3z"/>
	<path class="st2" d="M526.5,115.4l0-6.8l-3.3,5.5H521l-3.3-5.3v6.6h-4.6v-15h4.2l4.9,8l4.8-8h4.2l0,15H526.5z"/>
	<path class="st2" d="M546.2,103.7v11.7h-4.6v-1.1c-0.4,0.4-0.9,0.8-1.5,1c-0.6,0.2-1.2,0.3-1.8,0.3c-1.5,0-2.7-0.5-3.6-1.4
		c-0.9-0.9-1.4-2.3-1.4-4.1v-6.5h4.8v5.6c0,0.8,0.1,1.4,0.4,1.7s0.6,0.5,1.1,0.5c0.5,0,0.9-0.2,1.2-0.6c0.3-0.4,0.5-1,0.5-1.8v-5.5
		H546.2z"/>
</g>
<g class="st1">
	<path class="st2" d="M555.9,115.4l-1.6-2.5l-1.8,2.5h-5.2l4.4-5.8l-4.3-5.9h5.5l1.7,2.5l1.8-2.5h5.1l-4.3,5.7l4.4,6H555.9z"/>
</g>
<g class="st1">
	<path class="st2" d="M575,103.7v11.7h-4.6v-1c-0.7,0.8-1.8,1.2-3.2,1.2c-1,0-2-0.2-2.8-0.7c-0.9-0.5-1.6-1.2-2.1-2.1
		s-0.8-2-0.8-3.2c0-1.2,0.3-2.3,0.8-3.2c0.5-0.9,1.2-1.6,2.1-2.1c0.9-0.5,1.8-0.7,2.8-0.7c1.3,0,2.3,0.3,3,1v-0.8H575z M569.7,111.3
		c0.4-0.4,0.5-1,0.5-1.7s-0.2-1.3-0.5-1.7c-0.4-0.4-0.8-0.6-1.4-0.6c-0.6,0-1,0.2-1.4,0.6c-0.4,0.4-0.5,1-0.5,1.7s0.2,1.3,0.5,1.7
		c0.4,0.4,0.8,0.6,1.4,0.6C568.9,111.9,569.4,111.7,569.7,111.3z"/>
	<path class="st2" d="M589.8,103.7v11.7h-4.6v-1.1c-0.4,0.4-0.9,0.8-1.5,1c-0.6,0.2-1.2,0.3-1.8,0.3c-1.5,0-2.7-0.5-3.6-1.4
		c-0.9-0.9-1.4-2.3-1.4-4.1v-6.5h4.8v5.6c0,0.8,0.1,1.4,0.4,1.7c0.3,0.3,0.6,0.5,1.1,0.5c0.5,0,0.9-0.2,1.2-0.6
		c0.3-0.4,0.5-1,0.5-1.8v-5.5H589.8z"/>
	<path class="st2" d="M604.7,103.7v11.7h-4.8v-8h-2.2l-0.1,1.5c-0.1,1.5-0.2,2.8-0.5,3.7s-0.7,1.7-1.3,2.2s-1.4,0.8-2.4,0.8
		c-0.6,0-1.4-0.1-2.2-0.3l0.2-3.9c0.2,0,0.4,0,0.5,0c0.6,0,1-0.2,1.2-0.6c0.2-0.4,0.3-1.1,0.3-2.1l0.2-5.1H604.7z"/>
</g>
<g class="st1">
	<path class="st2" d="M264.3,133.4l4.4,7.7H263l-2.9-5.4h-1.4v5.4h-5.1v-15h5.1v5.6h1.5l3.2-5.6h5.3L264.3,133.4z"/>
</g>
<g class="st1">
	<path class="st2" d="M282.1,129.4v9.4c0,2.2-0.6,3.9-1.9,5c-1.2,1.1-3,1.7-5.2,1.7c-1.2,0-2.2-0.1-3.2-0.4c-1-0.3-1.9-0.6-2.6-1.1
		l1.6-3.3c0.5,0.3,1,0.6,1.7,0.8c0.7,0.2,1.4,0.3,2,0.3c1,0,1.7-0.2,2.1-0.6c0.4-0.4,0.7-1,0.7-1.8v-0.1c-0.8,0.7-1.9,1.1-3.1,1.1
		c-1.5,0-2.7-0.5-3.6-1.4c-0.9-0.9-1.4-2.3-1.4-4.1v-5.6h4.8v4.8c0,0.8,0.1,1.4,0.4,1.7c0.3,0.3,0.6,0.5,1.1,0.5
		c0.5,0,0.9-0.2,1.2-0.6c0.3-0.4,0.5-1,0.5-1.8v-4.7H282.1z"/>
	<path class="st2" d="M295.6,130.8c1.1,1.1,1.7,2.6,1.7,4.5c0,1.2-0.2,2.3-0.7,3.2c-0.5,0.9-1.1,1.6-2,2.1c-0.9,0.5-1.9,0.8-3,0.8
		c-0.6,0-1.1-0.1-1.6-0.2c-0.5-0.2-0.9-0.4-1.2-0.8v5h-4.8v-10c0-1.2,0.3-2.3,0.9-3.2c0.6-0.9,1.4-1.6,2.4-2.1s2.3-0.8,3.6-0.8
		C292.8,129.2,294.4,129.8,295.6,130.8z M292,137c0.3-0.4,0.5-1,0.5-1.7c0-0.7-0.2-1.3-0.5-1.7c-0.3-0.4-0.8-0.6-1.4-0.6
		s-1,0.2-1.4,0.6c-0.3,0.4-0.5,1-0.5,1.7c0,0.7,0.2,1.3,0.5,1.7c0.3,0.4,0.8,0.6,1.4,0.6S291.6,137.4,292,137z"/>
	<path class="st2" d="M311.6,129.4v11.7H307v-1c-0.7,0.8-1.8,1.2-3.2,1.2c-1,0-2-0.2-2.8-0.7c-0.9-0.5-1.6-1.2-2.1-2.1
		c-0.5-0.9-0.8-2-0.8-3.2c0-1.2,0.3-2.3,0.8-3.2c0.5-0.9,1.2-1.6,2.1-2.1c0.9-0.5,1.8-0.7,2.8-0.7c1.3,0,2.3,0.3,3,1v-0.8H311.6z
		 M306.3,137c0.4-0.4,0.5-1,0.5-1.7s-0.2-1.3-0.5-1.7c-0.4-0.4-0.8-0.6-1.4-0.6s-1,0.2-1.4,0.6c-0.4,0.4-0.5,1-0.5,1.7
		s0.2,1.3,0.5,1.7s0.8,0.6,1.4,0.6S306,137.4,306.3,137z"/>
	<path class="st2" d="M332.7,130.5c0.8,0.9,1.3,2.2,1.3,3.9v6.7h-4.8v-5.9c0-1.3-0.4-2-1.3-2c-0.5,0-0.8,0.2-1.1,0.5
		c-0.3,0.3-0.4,0.9-0.4,1.6v5.7h-4.8v-5.9c0-1.3-0.4-2-1.3-2c-0.5,0-0.8,0.2-1.1,0.5c-0.3,0.3-0.4,0.9-0.4,1.6v5.7h-4.8v-11.7h4.6
		v1.1c0.9-0.9,2-1.3,3.3-1.3c0.8,0,1.5,0.1,2.1,0.4c0.6,0.3,1.1,0.7,1.5,1.3c0.5-0.6,1-1,1.7-1.3c0.7-0.3,1.4-0.5,2.2-0.5
		C330.8,129.2,331.9,129.6,332.7,130.5z"/>
	<path class="st2" d="M338.6,140.6c-1-0.5-1.8-1.2-2.4-2.2c-0.6-0.9-0.9-2-0.9-3.1c0-1.2,0.3-2.2,0.9-3.1c0.6-0.9,1.4-1.6,2.4-2.2
		s2.2-0.8,3.5-0.8c1.3,0,2.5,0.3,3.5,0.8c1,0.5,1.8,1.2,2.4,2.2c0.6,0.9,0.9,2,0.9,3.1c0,1.2-0.3,2.2-0.9,3.1
		c-0.6,0.9-1.4,1.6-2.4,2.2c-1,0.5-2.2,0.8-3.5,0.8C340.8,141.4,339.6,141.1,338.6,140.6z M343.5,137c0.4-0.4,0.5-1,0.5-1.7
		s-0.2-1.3-0.5-1.7c-0.4-0.4-0.8-0.6-1.4-0.6c-0.6,0-1,0.2-1.4,0.6c-0.4,0.4-0.5,1-0.5,1.7s0.2,1.3,0.5,1.7c0.4,0.4,0.8,0.6,1.4,0.6
		C342.6,137.6,343.1,137.4,343.5,137z"/>
	<path class="st2" d="M361.6,130.8c1.1,1.1,1.7,2.6,1.7,4.5c0,1.2-0.2,2.3-0.7,3.2c-0.5,0.9-1.1,1.6-2,2.1c-0.9,0.5-1.9,0.8-3,0.8
		c-0.6,0-1.1-0.1-1.6-0.2c-0.5-0.2-0.9-0.4-1.2-0.8v5H350v-10c0-1.2,0.3-2.3,0.9-3.2c0.6-0.9,1.4-1.6,2.4-2.1s2.3-0.8,3.6-0.8
		C358.9,129.2,360.5,129.8,361.6,130.8z M358.1,137c0.3-0.4,0.5-1,0.5-1.7c0-0.7-0.2-1.3-0.5-1.7c-0.3-0.4-0.8-0.6-1.4-0.6
		s-1,0.2-1.4,0.6c-0.3,0.4-0.5,1-0.5,1.7c0,0.7,0.2,1.3,0.5,1.7c0.3,0.4,0.8,0.6,1.4,0.6S357.7,137.4,358.1,137z"/>
	<path class="st2" d="M365,134c-0.5-0.5-0.8-1.2-0.8-2s0.3-1.5,0.8-2c0.5-0.5,1.2-0.8,2-0.8s1.5,0.3,2,0.8c0.5,0.5,0.8,1.2,0.8,2
		s-0.3,1.5-0.8,2c-0.5,0.5-1.2,0.8-2,0.8S365.6,134.5,365,134z M365,140.6c-0.5-0.5-0.8-1.2-0.8-2s0.3-1.5,0.8-2s1.2-0.8,2-0.8
		s1.5,0.3,2,0.8c0.5,0.5,0.8,1.2,0.8,2s-0.3,1.5-0.8,2c-0.5,0.5-1.2,0.8-2,0.8S365.6,141.1,365,140.6z"/>
</g>
<g class="st1">
	<path class="st2" d="M381.3,140.5c-1.3-0.7-2.3-1.6-3-2.8c-0.7-1.2-1.1-2.5-1.1-4.1c0-1.5,0.4-2.9,1.1-4.1c0.7-1.2,1.7-2.1,3-2.8
		c1.3-0.7,2.7-1,4.3-1c1.5,0,2.8,0.3,3.9,0.8c1.1,0.5,2.1,1.3,2.8,2.2l-3.2,2.9c-0.9-1.2-2-1.8-3.3-1.8c-1.1,0-1.9,0.3-2.5,1
		c-0.6,0.7-1,1.6-1,2.7c0,1.1,0.3,2.1,1,2.7c0.6,0.7,1.5,1,2.5,1c1.3,0,2.3-0.6,3.3-1.8l3.2,2.9c-0.7,1-1.7,1.7-2.8,2.2
		c-1.1,0.5-2.4,0.8-3.9,0.8C384,141.5,382.6,141.2,381.3,140.5z"/>
</g>
<g class="st1">
	<path class="st2" d="M406.2,129.4v9.4c0,2.2-0.6,3.9-1.9,5c-1.2,1.1-3,1.7-5.2,1.7c-1.2,0-2.2-0.1-3.2-0.4c-1-0.3-1.9-0.6-2.6-1.1
		l1.6-3.3c0.5,0.3,1,0.6,1.7,0.8c0.7,0.2,1.4,0.3,2,0.3c1,0,1.7-0.2,2.1-0.6c0.4-0.4,0.7-1,0.7-1.8v-0.1c-0.8,0.7-1.9,1.1-3.1,1.1
		c-1.5,0-2.7-0.5-3.6-1.4s-1.3-2.3-1.3-4.1v-5.6h4.8v4.8c0,0.8,0.1,1.4,0.4,1.7c0.3,0.3,0.6,0.5,1.1,0.5c0.5,0,0.9-0.2,1.2-0.6
		s0.5-1,0.5-1.8v-4.7H406.2z"/>
	<path class="st2" d="M420.2,132.1c1,0.9,1.4,2.2,1.4,3.8c0,1.1-0.3,2.1-0.9,2.9s-1.4,1.5-2.4,1.9c-1,0.5-2.2,0.7-3.4,0.7
		c-2.1,0-3.8-0.6-5-1.9c-1.3-1.2-1.9-3.2-1.9-5.7c0-4.9,2.2-7.7,6.5-8.5l5.8-1l0.6,4l-4.9,0.9c-1.2,0.2-2,0.5-2.5,0.9
		c-0.5,0.4-0.8,1-0.9,1.8c1-0.8,2.2-1.2,3.6-1.2C417.9,130.7,419.2,131.2,420.2,132.1z M416.2,137.3c0.3-0.4,0.5-0.8,0.5-1.4
		c0-0.6-0.2-1.1-0.5-1.4c-0.3-0.3-0.8-0.5-1.3-0.5c-0.6,0-1,0.2-1.4,0.5c-0.3,0.3-0.5,0.8-0.5,1.4c0,0.6,0.2,1,0.5,1.4
		c0.3,0.4,0.8,0.5,1.4,0.5C415.4,137.9,415.9,137.7,416.2,137.3z"/>
	<path class="st2" d="M434.9,132.1c1,0.9,1.4,2.2,1.4,3.8c0,1.1-0.3,2.1-0.9,2.9c-0.6,0.8-1.4,1.5-2.4,1.9c-1,0.5-2.2,0.7-3.5,0.7
		c-2.1,0-3.8-0.6-5-1.9s-1.9-3.2-1.9-5.7c0-4.9,2.2-7.7,6.5-8.5l5.8-1l0.6,4l-4.9,0.9c-1.2,0.2-2,0.5-2.5,0.9
		c-0.5,0.4-0.8,1-0.9,1.8c1-0.8,2.2-1.2,3.6-1.2C432.6,130.7,433.9,131.2,434.9,132.1z M430.9,137.3c0.3-0.4,0.5-0.8,0.5-1.4
		c0-0.6-0.2-1.1-0.5-1.4c-0.3-0.3-0.8-0.5-1.3-0.5c-0.6,0-1,0.2-1.4,0.5c-0.3,0.3-0.5,0.8-0.5,1.4c0,0.6,0.2,1,0.5,1.4
		c0.3,0.4,0.8,0.5,1.4,0.5C430.1,137.9,430.6,137.7,430.9,137.3z"/>
	<path class="st2" d="M440.4,140.6c-1-0.5-1.8-1.2-2.4-2.2c-0.6-0.9-0.9-2-0.9-3.1c0-1.2,0.3-2.2,0.9-3.1c0.6-0.9,1.4-1.6,2.4-2.2
		c1-0.5,2.2-0.8,3.5-0.8c1.3,0,2.5,0.3,3.5,0.8s1.8,1.2,2.4,2.2c0.6,0.9,0.9,2,0.9,3.1c0,1.2-0.3,2.2-0.9,3.1s-1.4,1.6-2.4,2.2
		c-1,0.5-2.2,0.8-3.5,0.8C442.6,141.4,441.4,141.1,440.4,140.6z M445.2,137c0.4-0.4,0.5-1,0.5-1.7s-0.2-1.3-0.5-1.7
		c-0.4-0.4-0.8-0.6-1.4-0.6c-0.6,0-1,0.2-1.4,0.6c-0.4,0.4-0.5,1-0.5,1.7s0.2,1.3,0.5,1.7c0.4,0.4,0.8,0.6,1.4,0.6
		C444.4,137.6,444.9,137.4,445.2,137z"/>
	<path class="st2" d="M471.1,130.5c0.8,0.9,1.3,2.2,1.3,3.9v6.7h-4.8v-5.9c0-1.3-0.4-2-1.3-2c-0.5,0-0.8,0.2-1.1,0.5
		c-0.3,0.3-0.4,0.9-0.4,1.6v5.7h-4.8v-5.9c0-1.3-0.4-2-1.3-2c-0.5,0-0.8,0.2-1.1,0.5c-0.3,0.3-0.4,0.9-0.4,1.6v5.7h-4.8v-11.7h4.6
		v1.1c0.9-0.9,2-1.3,3.3-1.3c0.8,0,1.5,0.1,2.1,0.4s1.1,0.7,1.5,1.3c0.5-0.6,1-1,1.7-1.3c0.7-0.3,1.4-0.5,2.2-0.5
		C469.1,129.2,470.2,129.6,471.1,130.5z"/>
	<path class="st2" d="M487,129.4v11.7h-4.6V140c-0.4,0.4-0.9,0.8-1.5,1c-0.6,0.2-1.2,0.3-1.8,0.3c-1.5,0-2.7-0.5-3.6-1.4
		c-0.9-0.9-1.4-2.3-1.4-4.1v-6.5h4.8v5.6c0,0.8,0.1,1.4,0.4,1.7s0.6,0.5,1.1,0.5c0.5,0,0.9-0.2,1.2-0.6c0.3-0.4,0.5-1,0.5-1.8v-5.5
		H487z"/>
	<path class="st2" d="M489.2,129.4h4.8v4.1h3.3v-4.1h4.8v11.7h-4.8v-3.8h-3.3v3.8h-4.8V129.4z"/>
	<path class="st2" d="M524.2,126.1v15h-5v-3.6h-1.4l-2.3,3.6h-5.3l3-4.3c-1-0.5-1.7-1.1-2.2-1.9s-0.8-1.8-0.8-3
		c0-1.2,0.3-2.2,0.8-3.1c0.6-0.9,1.4-1.5,2.4-2s2.3-0.7,3.7-0.7H524.2z M515.4,131.9c0,1.3,0.6,1.9,1.9,1.9h2V130h-2
		C516,130,515.4,130.7,515.4,131.9z"/>
	<path class="st2" d="M537.9,130.8c1.1,1.1,1.7,2.6,1.7,4.5c0,1.2-0.2,2.3-0.7,3.2c-0.5,0.9-1.1,1.6-2,2.1c-0.9,0.5-1.9,0.8-3,0.8
		c-0.6,0-1.1-0.1-1.6-0.2c-0.5-0.2-0.9-0.4-1.2-0.8v5h-4.8v-10c0-1.2,0.3-2.3,0.9-3.2c0.6-0.9,1.4-1.6,2.4-2.1s2.3-0.8,3.6-0.8
		C535.2,129.2,536.8,129.8,537.9,130.8z M534.4,137c0.3-0.4,0.5-1,0.5-1.7c0-0.7-0.2-1.3-0.5-1.7c-0.3-0.4-0.8-0.6-1.4-0.6
		s-1,0.2-1.4,0.6c-0.3,0.4-0.5,1-0.5,1.7c0,0.7,0.2,1.3,0.5,1.7s0.8,0.6,1.4,0.6S534,137.4,534.4,137z"/>
	<path class="st2" d="M543.8,140.6c-1-0.5-1.8-1.2-2.4-2.2c-0.6-0.9-0.9-2-0.9-3.1c0-1.2,0.3-2.2,0.9-3.1c0.6-0.9,1.4-1.6,2.4-2.2
		c1-0.5,2.2-0.8,3.5-0.8c1.3,0,2.5,0.3,3.5,0.8c1,0.5,1.8,1.2,2.4,2.2c0.6,0.9,0.9,2,0.9,3.1c0,1.2-0.3,2.2-0.9,3.1
		c-0.6,0.9-1.4,1.6-2.4,2.2c-1,0.5-2.2,0.8-3.5,0.8C546,141.4,544.8,141.1,543.8,140.6z M548.6,137c0.4-0.4,0.5-1,0.5-1.7
		s-0.2-1.3-0.5-1.7c-0.4-0.4-0.8-0.6-1.4-0.6s-1,0.2-1.4,0.6c-0.4,0.4-0.5,1-0.5,1.7s0.2,1.3,0.5,1.7c0.4,0.4,0.8,0.6,1.4,0.6
		S548.3,137.4,548.6,137z"/>
	<path class="st2" d="M558.2,140.6c-1-0.5-1.9-1.2-2.5-2.2c-0.6-0.9-0.9-2-0.9-3.2c0-1.2,0.3-2.2,0.9-3.1c0.6-0.9,1.4-1.6,2.5-2.2
		c1.1-0.5,2.2-0.8,3.6-0.8c1.4,0,2.7,0.3,3.7,0.9c1,0.6,1.7,1.5,2.1,2.5l-3.8,1.8c-0.5-1-1.1-1.5-2-1.5c-0.6,0-1,0.2-1.4,0.6
		c-0.4,0.4-0.6,1-0.6,1.7c0,0.7,0.2,1.3,0.6,1.7c0.4,0.4,0.9,0.6,1.4,0.6c0.9,0,1.6-0.5,2-1.5l3.8,1.8c-0.4,1.1-1.1,1.9-2.1,2.6
		c-1,0.6-2.2,0.9-3.7,0.9C560.4,141.4,559.2,141.1,558.2,140.6z"/>
	<path class="st2" d="M581.5,129.4v11.7h-4.8v-8h-2.2l-0.1,1.5c-0.1,1.5-0.2,2.8-0.5,3.7c-0.3,1-0.7,1.7-1.3,2.2
		c-0.6,0.5-1.4,0.8-2.4,0.8c-0.6,0-1.4-0.1-2.2-0.3l0.2-3.9c0.2,0,0.4,0,0.5,0c0.6,0,1-0.2,1.2-0.6c0.2-0.4,0.3-1.1,0.3-2.1l0.2-5.1
		H581.5z"/>
	<path class="st2" d="M596.5,129.4v11.7h-4.6v-1c-0.7,0.8-1.8,1.2-3.2,1.2c-1,0-2-0.2-2.8-0.7c-0.9-0.5-1.5-1.2-2.1-2.1
		c-0.5-0.9-0.8-2-0.8-3.2c0-1.2,0.3-2.3,0.8-3.2c0.5-0.9,1.2-1.6,2.1-2.1c0.9-0.5,1.8-0.7,2.8-0.7c1.3,0,2.3,0.3,3,1v-0.8H596.5z
		 M591.2,137c0.4-0.4,0.5-1,0.5-1.7s-0.2-1.3-0.5-1.7c-0.4-0.4-0.8-0.6-1.4-0.6s-1,0.2-1.4,0.6c-0.4,0.4-0.5,1-0.5,1.7
		s0.2,1.3,0.5,1.7c0.4,0.4,0.8,0.6,1.4,0.6S590.9,137.4,591.2,137z"/>
	<path class="st2" d="M610.6,137.7c0,1.1-0.4,1.9-1.3,2.5c-0.8,0.6-2.1,0.9-3.7,0.9h-6.9v-11.7h6.6c1.6,0,2.8,0.3,3.7,0.8
		c0.9,0.5,1.3,1.3,1.3,2.3c0,0.5-0.1,1-0.4,1.5s-0.7,0.8-1.2,1C610,135.5,610.6,136.4,610.6,137.7z M603,134.1h1.9
		c0.7,0,1.1-0.3,1.1-0.8c0-0.3-0.1-0.5-0.2-0.6c-0.2-0.1-0.4-0.2-0.8-0.2H603V134.1z M606.3,137.3c0-0.6-0.3-0.8-1-0.8H603v1.7h2.2
		C605.9,138.2,606.3,137.9,606.3,137.3z"/>
</g>
<g>
	<path class="st3" d="M119.6,120.5v21.3h-5.3v-38.4c1.7,0,3.3,0,5,0c0.2,0,0.4,0.4,0.4,0.6c1.5,6.2,3,12.3,4.5,18.5
		c0.1,0.3,0.2,0.6,0.4,0.9v-19.9h5.5v38.4c-1.5,0-3.1,0-4.6,0c-0.2,0-0.4-0.4-0.4-0.6c-1.7-6.6-3.3-13.2-5-19.8
		c-0.1-0.3-0.2-0.6-0.2-0.9C119.7,120.5,119.7,120.5,119.6,120.5L119.6,120.5z"/>
	<path class="st3" d="M176.3,64.1h5.3v38.4c-1.5,0-2.9,0-4.3,0c-0.2,0-0.5-0.4-0.6-0.7c-1.4-5.4-2.7-10.9-4.1-16.3
		c-0.4-1.5-0.8-3-1.3-4.4v21.4h-5.3V64.1c1.7,0,3.3,0,4.9,0c0.2,0,0.5,0.4,0.6,0.6c1.4,5.6,2.7,11.2,4.1,16.9
		c0.2,0.7,0.4,1.5,0.7,2.2L176.3,64.1L176.3,64.1z"/>
	<path class="st3" d="M38.9,103.4c3.2,0,6.4,0,9.5,0c0.5,0,1.1,0.1,1.6,0.2c2.7,0.5,4.2,2.6,4.2,5.2c0.2,8.6,0.2,17.2,0.2,25.7
		c0,1.2-0.2,2.4-0.6,3.5c-0.7,2.4-2.7,3.8-5.2,3.8c-3.3,0-6.5,0-9.8,0L38.9,103.4L38.9,103.4z M44.8,108.7v27.6
		c3,0.3,3.6-0.3,3.6-3.2c0-7,0-14.1,0-21.1C48.4,108.9,47.9,108.4,44.8,108.7L44.8,108.7z"/>
	<path class="st3" d="M184,102.5V64.2c0.2,0,0.5-0.1,0.7-0.1c3.1,0,6.2,0,9.2,0c2.9,0,5,1.9,5.4,4.7c0.1,0.9,0.2,1.9,0.2,2.8
		c0,8,0,15.9,0,23.9c0,2-0.4,3.9-1.8,5.4c-0.9,0.9-2,1.5-3.2,1.5C190.9,102.6,187.5,102.5,184,102.5L184,102.5z M189.9,69.3V97
		c0.6,0,1.1,0,1.7,0c1-0.1,1.7-0.8,1.8-1.8c0.1-0.7,0.1-1.4,0.1-2.1c0-3.9,0-7.7,0-11.6c0-2.9,0-5.9,0-8.8
		C193.4,69.6,192.9,69.1,189.9,69.3L189.9,69.3z"/>
	<path class="st3" d="M110.8,64.1c3.7,0,7.3-0.1,10.9,0.1c2.3,0.1,3.9,1.5,4.1,4c0.2,3.1,0.2,6.3,0.2,9.4c0,1.9-0.8,3.1-2.4,4.2
		c2,0.9,2.5,2.6,2.5,4.6c0,4.5,0,9.1,0,13.6c0,0.8,0.3,1.7,0.5,2.6c-1.1,0-2.3,0-3.6,0c-0.4,0-0.8,0-1.2,0c-1.2,0-1.5-0.2-1.5-1.5
		c-0.1-4.2-0.1-8.3-0.2-12.4c0-0.1,0-0.1,0-0.2c0.1-2.6-0.1-3.3-3.6-3v17.1h-5.8C110.8,102.5,110.8,64.1,110.8,64.1z M116.7,69.4
		v10.5c0.5,0,0.8,0,1.2,0c1.6,0,2.2-0.6,2.2-2.2c0-1.7,0-3.4,0-5.2c0.1-3.2-0.7-3.3-3.4-3.2C116.8,69.3,116.8,69.3,116.7,69.4z"/>
	<path class="st3" d="M38.9,64.1h5.8v15.2h4.1V64.1h5.8v38.4h-5.7V85.8h-4.1v16.7h-5.8C38.9,102.5,38.9,64.1,38.9,64.1z"/>
	<path class="st3" d="M177.6,118.7h4.1v-15.3h5.8v38.4h-5.8v-16.7h-4.1v16.7h-5.8v-38.4h5.8C177.6,103.5,177.6,118.7,177.6,118.7z"
		/>
	<path class="st3" d="M223.5,122.6c0,3.9,0.1,7.9,0,11.8c0,2.1-0.4,4.1-1.8,5.7c-0.8,0.8-1.7,1.5-2.7,1.9c-2,0.7-4.2,0.6-6.2,0.2
		c-2.8-0.6-4.3-2.6-4.8-5.4c-0.3-1.4-0.4-2.8-0.4-4.2c0-7-0.1-14,0-21c0-1.5,0.3-3,0.8-4.5c0.8-2.5,3.2-4.1,5.8-4.1
		c1.4,0,2.7,0,4,0.2c3.2,0.4,5.1,3,5.2,6c0.2,4.4,0.1,8.9,0.1,13.4C223.4,122.6,223.5,122.6,223.5,122.6L223.5,122.6z M213.5,122.7
		C213.5,122.7,213.5,122.7,213.5,122.7c0,1.7,0,3.3,0,5c0,2.3,0,4.7,0,7c0,1.1,0.8,1.9,1.7,2c1.1,0.1,1.9-0.4,2.1-1.4
		c0.1-0.6,0.2-1.3,0.2-1.9c0-6.1,0-12.2,0-18.2c0-1.1,0.1-2.3,0-3.4c-0.1-0.9-0.4-1.9-0.9-2.6c-0.4-0.6-1.3-0.6-2-0.3
		c-0.9,0.4-1.1,1.1-1.1,1.9C213.5,114.7,213.5,118.7,213.5,122.7L213.5,122.7z"/>
	<path class="st3" d="M205.6,122.6c0,4,0.1,8,0,12c0,1.3-0.4,2.7-0.8,3.9c-1,2.6-3.1,3.7-5.8,3.9c-1.4,0.1-2.8,0-4.2-0.3
		c-2.9-0.6-4.4-2.8-4.9-5.5c-0.3-1.5-0.3-3-0.4-4.5c0-6.6,0-13.2,0-19.8c0-1.8,0.1-3.6,0.9-5.3c1.1-2.5,3.1-3.8,5.8-3.9
		c1.3,0,2.7,0,4,0.2c3.2,0.4,4.7,2.9,5.1,5.7c0.2,1.1,0.2,2.3,0.2,3.4C205.6,115.8,205.6,119.2,205.6,122.6L205.6,122.6z
		 M195.6,122.7c0,0.5,0,1,0,1.5c0,3.4,0,6.8,0,10.3c0,1.3,0.7,2.2,1.8,2.3c1.1,0.1,2.1-0.4,2.2-1.8c0-0.4,0.1-0.8,0.1-1.2
		c0-4.4,0-8.9,0-13.3c0-3,0-6,0-9.1c0-0.9-0.1-1.9-1.1-2.5c-1.4-0.8-3,0.2-3,2.1C195.6,114.9,195.6,118.8,195.6,122.7L195.6,122.7z"
		/>
	<path class="st3" d="M112.2,118.6v23.3c-1,0-1.9,0-2.9,0c-0.2,0-0.5-0.4-0.6-0.6c-0.3-0.9-0.5-1.8-0.7-2.8c-0.6,0.8-1,1.4-1.6,2.1
		c-2.6,3.3-8.1,2.5-9.4-2.2c-0.2-0.8-0.4-1.7-0.4-2.5c0-8.5-0.1-17.1,0-25.6c0-1.4,0.5-2.8,1.1-4.1c0.8-1.9,2.5-2.8,4.4-3
		c1.6-0.2,3.3-0.1,4.9,0.1c3.5,0.5,4.5,3,4.7,5.3c0.2,2.3,0.1,4.7,0.1,7h-5.5c0-1.5,0-2.9,0-4.4c0-0.5-0.1-1-0.2-1.4
		c-0.2-0.7-0.6-1-1.3-1.1c-0.7-0.1-1.4,0.1-1.7,0.8c-0.2,0.5-0.4,1.1-0.4,1.7c0,7.6,0,15.3,0,22.9c0,1.7,0.8,2.6,2.1,2.6
		c1.1,0,2-0.8,2-1.9c0-3.4,0-6.7,0-10.1h-2.5v-6L112.2,118.6L112.2,118.6z"/>
	<path class="st3" d="M169.8,117.9h-5.7c0-2.4,0-4.8,0-7.2c0-1.1-0.6-1.9-1.5-2c-1.3-0.2-2.2,0.5-2.2,1.9c0,3,0,6,0,9c0,5,0,10,0,15
		c0,1.8,1.5,2.9,2.8,1.9c0.5-0.4,0.8-1.2,0.9-1.9c0.1-2.8,0-5.5,0-8.3c0-0.3,0-0.7,0-1.1h5.7c0,0.3,0,0.7,0,1c0,3.1,0.1,6.3-0.1,9.4
		c-0.2,4-2.3,6.9-6.9,6.8c-1.2,0-2.5,0-3.6-0.3c-3.2-0.8-4.7-3.1-4.7-6.1c-0.2-8.3-0.2-16.7-0.2-25c0-1.4,0.3-2.8,0.7-4.1
		c0.7-2.2,2.5-3.5,4.8-3.8c1.8-0.2,3.8-0.2,5.6,0.2c3,0.7,4.1,2.4,4.4,5.6c0.2,2.9,0.1,5.8,0.1,8.7
		C169.9,117.7,169.9,117.7,169.8,117.9L169.8,117.9z"/>
	<path class="st3" d="M86.5,116h-5.7c0-1.5,0-3,0-4.5c0-0.6,0-1.1,0-1.7c0-0.9-0.5-1.5-1.3-1.5c-1.2-0.1-1.6,0.3-1.8,1.3
		c-0.7,3.3,0.6,5.9,2.5,8.3c1.9,2.4,3.8,4.9,5.5,7.5c1.1,1.6,1.4,3.6,1.4,5.5c0,2.3,0.2,4.7-0.7,7c-1,2.6-2.8,4-5.6,4.3
		c-1.9,0.2-3.7,0.2-5.5-0.4c-2.4-0.8-3.7-2.6-3.8-4.9c-0.2-3.2-0.1-6.4-0.1-9.6h5.7c0,2.4,0,4.9,0,7.3c0,1.4,0.7,2.1,2.1,2.1
		c0.8,0,1.5-0.6,1.6-1.6c0.1-1.7,0-3.4-0.2-5.1c-0.2-1.7-1.4-3-2.4-4.3c-1.6-2.2-3.3-4.3-4.9-6.6c-1.3-1.9-1.8-4.1-1.7-6.3
		c0-1.7,0-3.5,0.4-5.2c0.6-2.9,2.6-4.1,5.3-4.4c1.5-0.2,3.1-0.2,4.6,0c3.4,0.6,4.3,2.2,4.6,5.1C86.7,110.8,86.5,113.4,86.5,116
		L86.5,116z"/>
	<path class="st3" d="M56.4,88h5.7c0,2.2,0,4.3,0,6.5c0,0.5,0.1,1.1,0.2,1.6c0.2,0.9,0.8,1.3,1.9,1.3c1,0,1.4-0.6,1.5-1.4
		c0.6-3.4,0.2-6.5-2.2-9.3c-1.6-1.8-3-3.8-4.5-5.7c-2.4-3.2-2.7-6.8-2.5-10.6c0-0.8,0.2-1.5,0.4-2.2c0.7-2.6,2.6-4,5.1-4.3
		c1.7-0.2,3.5-0.1,5.2,0.2c2.6,0.4,3.9,2.3,4.1,4.8c0.1,1.3,0.1,2.6,0.2,3.9c0,1.3,0,2.6,0,3.9H66c0-1.7,0-3.5,0-5.3
		c0-0.4,0-0.8-0.1-1.2c-0.3-1.1-0.7-1.3-1.9-1.2c-0.9,0.1-1.2,0.7-1.3,1.5c-0.3,2.9,0.4,5.5,2.3,7.8c1.8,2.1,3.5,4.4,5.1,6.7
		c2.1,3,2.3,6.4,2.1,9.9c-0.1,1.4-0.4,2.8-0.9,4.1c-0.7,2-2.2,3.2-4.3,3.8c-2.1,0.5-4.2,0.6-6.3-0.1c-2.7-0.8-4.1-2.6-4.3-5.4
		C56.2,94.2,56.4,91.1,56.4,88L56.4,88z"/>
	<path class="st3" d="M137.2,127.3h5.7c0,1.8,0,3.5,0,5.2c0,0.9,0.1,1.9,0.2,2.8c0.1,0.9,0.7,1.3,1.7,1.3c1,0,1.6-0.4,1.7-1.3
		c0.5-2.9,0.6-5.7-1.3-8.2c-1.5-2.1-3.1-4.1-4.7-6.1c-2.2-2.8-3.1-6-3-9.5c0-2,0-3.9,1-5.7c0.9-1.8,2.6-2.7,4.4-2.8
		c1.9-0.2,3.8-0.1,5.7,0.2c2.3,0.4,3.7,2.3,3.8,4.8c0.1,2.6,0,5.2,0,7.8h-5.5c0-1.6,0-3.1,0-4.7c0-0.6-0.1-1.1-0.2-1.6
		c-0.2-1.1-0.6-1.4-1.8-1.3c-0.8,0-1.2,0.6-1.4,1.5c-0.5,3.2,0.6,5.9,2.7,8.3c1.7,2.1,3.3,4.2,4.9,6.4c1.6,2.3,2,5,1.9,7.8
		c0,2.2,0,4.4-1,6.4c-1.1,2.1-2.9,3.2-5.2,3.5c-1.6,0.2-3.2,0.1-4.8-0.2c-3.1-0.7-4.4-3-4.6-5.8c-0.2-2.7,0-5.5,0-8.2
		C137.2,127.9,137.2,127.7,137.2,127.3L137.2,127.3z"/>
	<path class="st3" d="M153.1,64.1c2.2,0,4.3,0,6.5,0c0.2,0,0.6,0.4,0.6,0.7c0.4,2.6,0.6,5.1,1,7.7c0.3,2.6,0.7,5.2,1.1,7.8
		c0.3,2.1,0.5,4.2,0.8,6.3c0.3,2.1,0.6,4.3,0.9,6.4c0.3,2.1,0.5,4.2,0.8,6.2c0.1,1.1,0.3,2.1,0.4,3.3c-1.8,0-3.6,0-5.3,0
		c-0.2,0-0.4-0.4-0.4-0.6c-0.2-1.9-0.4-3.9-0.6-5.8c0-0.6-0.2-0.8-0.8-0.8c-1,0-2,0-3,0c-0.2,0-0.6,0.3-0.7,0.5
		c-0.2,1.9-0.4,3.9-0.6,5.8c-0.1,0.6-0.2,0.9-0.9,0.9c-1.4-0.1-2.9,0-4.4,0C150,89.7,151.5,77,153.1,64.1L153.1,64.1z M158.1,89.6
		c-0.5-4.6-1-9.1-1.5-13.6c0,0-0.1,0-0.1,0c-0.5,4.5-0.9,9-1.4,13.5H158.1z"/>
	<path class="st3" d="M109.8,102.5h-5.7c-0.3-2.4-0.5-4.7-0.8-7.1h-4.2c-0.3,2.3-0.5,4.7-0.8,7.1h-5.2c1.6-12.8,3.1-25.6,4.7-38.3h7
		C106.4,77,108.1,89.7,109.8,102.5L109.8,102.5z M101.2,76.2c-0.1,0-0.1,0-0.2,0c-0.5,4.5-0.9,8.9-1.4,13.4h3
		C102.2,85,101.7,80.6,101.2,76.2L101.2,76.2z"/>
	<path class="st3" d="M56.6,103.4h13.2v5.5h-7.3v10.1h5.6v5.8h-5.6v11.2h7.7v5.7H56.6L56.6,103.4L56.6,103.4z"/>
	<path class="st3" d="M74,64.1h13.2v5.5h-7.5v10.1h5.8v5.8h-5.8v11.2h7.7v5.7H74C74,102.5,74,64.1,74,64.1z"/>
	<path class="st3" d="M132.2,69.7h-4.8v-5.5h15.4v5.5h-4.7v32.9h-5.9V69.7z"/>
	<path class="st3" d="M225.6,103.5h5.8v32.5h7v5.9h-12.9L225.6,103.5L225.6,103.5z"/>
	<path class="st3" d="M94.6,141.9h-5.8v-38.4h5.8V141.9z"/>
</g>
<rect x="214.3" y="53.1" class="st4" width="216.5" height="91.4"/>
</svg>
