<?xml version="1.0" encoding="utf-8"?>
<!-- Generator: Adobe Illustrator 26.4.1, SVG Export Plug-In . SVG Version: 6.00 Build 0)  -->
<svg version="1.1" id="Layer_1" xmlns="http://www.w3.org/2000/svg" xmlns:xlink="http://www.w3.org/1999/xlink" x="0px" y="0px"
	 viewBox="0 0 50 120" style="enable-background:new 0 0 50 120;" xml:space="preserve">
<g>
	<path d="M8.6,15L8.6,15c2,0,3.6,1.5,3.6,3.4v83.2c0,1.9-1.6,3.4-3.6,3.4l0,0c-2,0-3.6-1.5-3.6-3.4V18.4C5,16.5,6.6,15,8.6,15z"/>
	<path d="M19.5,15L19.5,15c2,0,3.6,1.5,3.6,3.4v83.2c0,1.9-1.6,3.4-3.6,3.4h0c-2,0-3.6-1.5-3.6-3.4V18.4C15.9,16.5,17.5,15,19.5,15z
		"/>
	<path d="M30.5,15L30.5,15c2,0,3.6,1.5,3.6,3.4v83.2c0,1.9-1.6,3.4-3.6,3.4l0,0c-2,0-3.6-1.5-3.6-3.4V18.4
		C26.9,16.5,28.5,15,30.5,15z"/>
	<path d="M41.4,15L41.4,15c2,0,3.6,1.5,3.6,3.4v83.2c0,1.9-1.6,3.4-3.6,3.4l0,0c-2,0-3.6-1.5-3.6-3.4V18.4
		C37.8,16.5,39.4,15,41.4,15z"/>
</g>
</svg>
