<?xml version="1.0" encoding="utf-8"?>
<!-- Generator: Adobe Illustrator 26.4.1, SVG Export Plug-In . SVG Version: 6.00 Build 0)  -->
<svg version="1.1" id="Layer_1" xmlns="http://www.w3.org/2000/svg" xmlns:xlink="http://www.w3.org/1999/xlink" x="0px" y="0px"
	 viewBox="0 0 338.9 288" style="enable-background:new 0 0 338.9 288;" xml:space="preserve">
<style type="text/css">
	.st0{fill-rule:evenodd;clip-rule:evenodd;fill:#0000FF;}
</style>
<path class="st0" d="M117.7,70L39,104.4l0,0l-0.1,0.1l55.2,121.7L59.6,113.8l58.1-25.4V70z"/>
<path class="st0" d="M117.7,0.2L0,77v0.1l0,0L64,288L23.9,93.4l93.7-61.2V0.2z"/>
<path class="st0" d="M217.4,69.8l78.7,34.4l0,0l0.1,0.1L241,226l34.5-112.4l-58.1-25.4L217.4,69.8L217.4,69.8z"/>
<path class="st0" d="M217.4,0L335,76.8v0.1l0,0l-64,210.9l40.1-194.6L217.4,32V0z"/>
</svg>
