<?xml version="1.0" encoding="utf-8"?>
<!-- Generator: Adobe Illustrator 26.4.1, SVG Export Plug-In . SVG Version: 6.00 Build 0)  -->
<svg version="1.1" id="Layer_1" xmlns="http://www.w3.org/2000/svg" xmlns:xlink="http://www.w3.org/1999/xlink" x="0px" y="0px"
	 viewBox="0 0 140 315" style="enable-background:new 0 0 140 315;" xml:space="preserve">
<style type="text/css">
	.st0{fill:#0000FF;}
</style>
<g>
	<path class="st0" d="M12.6,45L12.6,45c7,0,12.6,4.5,12.6,10.2v249.6c0,5.7-5.6,10.2-12.6,10.2l0,0c-7,0-12.6-4.5-12.6-10.2V55.2
		C0,49.5,5.6,45,12.6,45z"/>
	<path class="st0" d="M50.8,45L50.8,45c7,0,12.6,4.5,12.6,10.2v249.6c0,5.7-5.6,10.2-12.6,10.2l0,0c-7,0-12.6-4.5-12.6-10.2V55.2
		C38.2,49.5,43.8,45,50.8,45z"/>
	<path class="st0" d="M89.2,45L89.2,45c7,0,12.6,4.5,12.6,10.2v249.6c0,5.7-5.6,10.2-12.6,10.2l0,0c-7,0-12.6-4.5-12.6-10.2V55.2
		C76.7,49.5,82.2,45,89.2,45z"/>
	<path class="st0" d="M127.4,45L127.4,45c7,0,12.6,4.5,12.6,10.2v249.6c0,5.7-5.6,10.2-12.6,10.2l0,0c-7,0-12.6-4.5-12.6-10.2V55.2
		C114.8,49.5,120.4,45,127.4,45z"/>
</g>
</svg>
