<?xml version="1.0" encoding="UTF-8"?>
<svg id="Layer_1" data-name="Layer 1" xmlns="http://www.w3.org/2000/svg" width="55" height="55" viewBox="0 0 55 55">
  <path d="M23.5,7.56c-3.32-.15-8.11,.19-10.9,3.4-1.13,1.3-1.5,2.58-2.79,10.33-1.55,9.35-1.64,11.31-3.15,13.98-1.88,3.32-4.61,5.35-6.66,6.56,1.84-.46,4.63-1.47,6.91-3.89,1.5-1.6,2.44-3.41,3.88-8.63,2.8-10.15,2.01-13.14,4.72-15.56,1.28-1.14,3.56-2.34,7.87-2.07"/>
  <path d="M23.26,13.03c-2.5,.63-5.67,1.9-7.39,4.74-1.68,2.78-.68,4.94-.73,9.48-.11,10.07-5.17,12.14-3.76,19.81,.15,.82,1.35,7.32,4.85,7.9,3.86,.64,7.52-6.46,7.27-6.68-.23-.21-3.83,5.32-6.91,4.5-2.17-.58-3.15-4.07-3.39-6.08-.27-2.27,.32-3.38,2.06-8.75,1.95-6.03,2.92-9.04,3.03-10.82,.23-3.89-.7-6,.85-7.78,1.14-1.31,2.93-1.63,4.24-1.7"/>
  <path d="M28.71,7.44c9.26,1.84,13.18,.08,15.02-1.94,1.39-1.53,1.92-3.56,4.24-4.74,2.43-1.24,5.16-.71,7.03-.12-1.58-.19-3.72-.16-5.45,1.09-1.75,1.27-1.77,2.85-3.51,4.86-1.8,2.08-3.97,2.91-5.57,3.52-5.27,2.02-10.11,.66-11.75,.12"/>
  <path d="M28.35,12.67c2.04,.16,6.93,.83,10.66,4.62,6.43,6.53,5.93,18.79,.97,22.24-4.16,2.9-11.25-.57-11.27-.49-.02,.1,3.93,1.75,7.75,.24,.59-.23,2.44-.99,3.76-2.92,1.35-1.97,1.35-4.04,1.33-5.47-.04-3.33-1.34-7.9-5.21-11.06-3.19-2.6-6.66-3.06-8.12-3.16l.12-4.01Z"/>
</svg>