<?xml version="1.0" encoding="utf-8"?>
<!-- Generator: Adobe Illustrator 26.4.1, SVG Export Plug-In . SVG Version: 6.00 Build 0)  -->
<svg version="1.1" id="Layer_1" xmlns="http://www.w3.org/2000/svg" xmlns:xlink="http://www.w3.org/1999/xlink" x="0px" y="0px"
	 viewBox="0 0 345 300" style="enable-background:new 0 0 345 300;" xml:space="preserve">
<style type="text/css">
	.st0{fill:#0000FF;}
</style>
<path class="st0" d="M128.2,41.2c-18.1-0.8-44.2,1-59.4,18.5c-6.2,7.1-8.2,14.1-15.2,56.4c-8.5,51-9,61.7-17.2,76.3
	C26.1,210.5,11.2,221.5,0,228.1c10-2.5,25.2-8,37.7-21.2c8.2-8.7,13.3-18.6,21.2-47.1c15.3-55.4,11-71.7,25.8-84.9
	c7-6.2,19.4-12.8,42.9-11.3"/>
<path class="st0" d="M126.9,71.1c-13.6,3.4-30.9,10.4-40.3,25.9c-9.2,15.2-3.7,26.9-4,51.7c-0.6,54.9-28.2,66.2-20.5,108.1
	c0.8,4.5,7.4,39.9,26.4,43.1c21.1,3.5,41-35.2,39.6-36.4c-1.2-1.1-20.9,29-37.7,24.5c-11.8-3.2-17.2-22.2-18.5-33.2
	c-1.5-12.4,1.8-18.4,11.2-47.7c10.6-32.9,15.9-49.3,16.5-59c1.2-21.2-3.8-32.7,4.6-42.4c6.2-7.2,16-8.9,23.1-9.3"/>
<path class="st0" d="M201.6,40.6c50.5,10,71.9,0.4,81.9-10.6c7.6-8.4,10.5-19.4,23.1-25.9c13.2-6.8,28.1-3.9,38.4-0.7
	c-8.6-1-20.3-0.9-29.7,5.9c-9.5,6.9-9.6,15.6-19.1,26.5c-9.8,11.3-21.6,15.9-30.4,19.2c-28.8,11-55.1,3.6-64.1,0.7"/>
<path class="st0" d="M199.6,69.1c11.1,0.9,37.8,4.5,58.2,25.2c35.1,35.6,32.4,102.5,5.3,121.3c-22.7,15.8-61.4-3.1-61.5-2.7
	c-0.1,0.6,21.4,9.6,42.3,1.3c3.2-1.2,13.3-5.4,20.5-15.9c7.4-10.8,7.4-22,7.2-29.8c-0.2-18.2-7.3-43.1-28.4-60.3
	c-17.4-14.2-36.3-16.7-44.3-17.2L199.6,69.1L199.6,69.1L199.6,69.1z"/>
</svg>
