<?xml version="1.0" encoding="utf-8"?>
<!-- Generator: Adobe Illustrator 26.4.1, SVG Export Plug-In . SVG Version: 6.00 Build 0)  -->
<svg version="1.1" id="Layer_1" xmlns="http://www.w3.org/2000/svg" xmlns:xlink="http://www.w3.org/1999/xlink" x="0px" y="0px"
	 viewBox="0 0 50 48.8" style="enable-background:new 0 0 50 48.8;" xml:space="preserve">
<style type="text/css">
	.st0{fill-rule:evenodd;clip-rule:evenodd;}
</style>
<path class="st0" d="M19.6,12.1L6.5,17.8l0,0l0,0l9.2,20.3L9.9,19.4l9.7-4.2V12.1L19.6,12.1z"/>
<path class="st0" d="M19.6,0.5L0,13.3v0l0,0l10.7,35.1L4,16L19.6,5.8V0.5z"/>
<path class="st0" d="M30.4,12l13.1,5.7l0,0l0,0l-9.2,20.3l5.8-18.7l-9.7-4.2V12L30.4,12z"/>
<path class="st0" d="M30.4,0.4L50,13.2v0l0,0L39.3,48.4L46,15.9L30.4,5.7V0.4z"/>
</svg>
