<?xml version="1.0" encoding="utf-8"?>
<!-- Generator: Adobe Illustrator 26.4.1, SVG Export Plug-In . SVG Version: 6.00 Build 0)  -->
<svg version="1.1" id="Layer_1" xmlns="http://www.w3.org/2000/svg" xmlns:xlink="http://www.w3.org/1999/xlink" x="0px" y="0px"
	 viewBox="0 0 1781.8 699.2" style="enable-background:new 0 0 1781.8 699.2;" xml:space="preserve">
<style type="text/css">
	.st0{fill:url(#SVGID_1_);stroke:#000000;stroke-width:7.627;stroke-miterlimit:10;}
	.st1{fill:#FFFFFF;stroke:#000000;stroke-width:7.64;stroke-miterlimit:10;}
	
		.st2{fill:url(#SVGID_00000119827646566027036130000011360720334939042751_);stroke:#000000;stroke-width:7.627;stroke-miterlimit:10;}
	
		.st3{fill:url(#SVGID_00000016780834680762258030000006961625474444224401_);stroke:#000000;stroke-width:7.627;stroke-miterlimit:10;}
	.st4{stroke:#000000;stroke-width:9.3668;stroke-miterlimit:10;}
</style>
<linearGradient id="SVGID_1_" gradientUnits="userSpaceOnUse" x1="295.9" y1="8.2" x2="295.9" y2="698.2095" gradientTransform="matrix(1 0 0 -1 0 702)">
	<stop  offset="0" style="stop-color:#000000"/>
	<stop  offset="7.380247e-03" style="stop-color:#090909"/>
	<stop  offset="4.767627e-02" style="stop-color:#373737"/>
	<stop  offset="9.308982e-02" style="stop-color:#626262"/>
	<stop  offset="0.1419" style="stop-color:#888888"/>
	<stop  offset="0.195" style="stop-color:#A8A8A8"/>
	<stop  offset="0.2537" style="stop-color:#C4C4C4"/>
	<stop  offset="0.32" style="stop-color:#DADADA"/>
	<stop  offset="0.3974" style="stop-color:#EBEBEB"/>
	<stop  offset="0.4931" style="stop-color:#F6F6F6"/>
	<stop  offset="0.6274" style="stop-color:#FDFDFD"/>
	<stop  offset="1" style="stop-color:#FFFFFF"/>
</linearGradient>
<path class="st0" d="M507.4,530.3c-24.4-50.7-75.5-83-131.7-83.2v-54.6c23.3-21.8,41.6-52.9,52.2-89.5c4.9-16.8,11.8-32.8,19.9-48.2
	c12.5-23.8,19.6-50.9,19.6-79.6c0-94.1-75.8-170.5-169.7-171.4c-95.4-1-173.9,77.2-173.2,172.6c0.2,29.3,7.7,56.8,20.9,80.9
	c7.6,13.8,13.7,28.3,18,43.5c10.5,37.5,29.1,69.5,52.9,91.8v54.6c-56.2,0.2-107.4,32.5-131.7,83.2L5.9,693.8h580l0,0L507.4,530.3z"
	/>
<path class="st1" d="M235.8,212.1c21.1,0,38.1-11.7,38.1-26s-17.1-26-38.1-26s-38.1,11.7-38.1,26S214.7,212.1,235.8,212.1z"/>
<path class="st1" d="M356.8,212.1c21.1,0,38.1-11.7,38.1-26s-17.1-26-38.1-26s-38.1,11.7-38.1,26S335.7,212.1,356.8,212.1z"/>
<path d="M235.8,201.6c8.6,0,15.6-7,15.6-15.6s-7-15.6-15.6-15.6s-15.6,7-15.6,15.6S227.2,201.6,235.8,201.6z"/>
<path d="M356.8,201.6c8.6,0,15.6-7,15.6-15.6s-7-15.6-15.6-15.6s-15.6,7-15.6,15.6S348.2,201.6,356.8,201.6z"/>
<path class="st1" d="M296.3,338.8c19.2,0,34.7-12,34.7-26.9h-69.4C261.6,326.7,277.1,338.8,296.3,338.8L296.3,338.8z"/>
<path class="st1" d="M313.6,253.7H279"/>
<linearGradient id="SVGID_00000123434832348811773220000016497222752441992842_" gradientUnits="userSpaceOnUse" x1="890.5341" y1="8.2" x2="890.5341" y2="698.2095" gradientTransform="matrix(1 0 0 -1 0 702)">
	<stop  offset="0" style="stop-color:#000000"/>
	<stop  offset="7.380247e-03" style="stop-color:#090909"/>
	<stop  offset="4.767627e-02" style="stop-color:#373737"/>
	<stop  offset="9.308982e-02" style="stop-color:#626262"/>
	<stop  offset="0.1419" style="stop-color:#888888"/>
	<stop  offset="0.195" style="stop-color:#A8A8A8"/>
	<stop  offset="0.2537" style="stop-color:#C4C4C4"/>
	<stop  offset="0.32" style="stop-color:#DADADA"/>
	<stop  offset="0.3974" style="stop-color:#EBEBEB"/>
	<stop  offset="0.4931" style="stop-color:#F6F6F6"/>
	<stop  offset="0.6274" style="stop-color:#FDFDFD"/>
	<stop  offset="1" style="stop-color:#FFFFFF"/>
</linearGradient>
<path style="fill:url(#SVGID_00000123434832348811773220000016497222752441992842_);stroke:#000000;stroke-width:7.627;stroke-miterlimit:10;" d="
	M1102,530.3c-24.4-50.7-75.5-83-131.7-83.2v-54.6c23.3-21.8,41.6-52.9,52.2-89.5c4.9-16.8,11.8-32.8,19.9-48.2
	c12.5-23.8,19.6-50.9,19.6-79.6c0-94.1-75.8-170.5-169.7-171.4c-95.4-1-173.9,77.2-173.2,172.6c0.2,29.3,7.7,56.8,20.9,80.9
	c7.6,13.8,13.7,28.3,18,43.5c10.5,37.5,29.1,69.5,52.9,91.8v54.6c-56.2,0.2-107.4,32.5-131.7,83.2l-78.7,163.4h580l0,0L1102,530.3z"
	/>
<path class="st1" d="M830.4,212.1c21.1,0,38.1-11.7,38.1-26s-17.1-26-38.1-26s-38.1,11.7-38.1,26S809.3,212.1,830.4,212.1z"/>
<path class="st1" d="M951.4,212.1c21.1,0,38.1-11.7,38.1-26s-17.1-26-38.1-26s-38.1,11.7-38.1,26S930.3,212.1,951.4,212.1z"/>
<path d="M830.4,201.6c8.6,0,15.6-7,15.6-15.6s-7-15.6-15.6-15.6c-8.6,0-15.6,7-15.6,15.6S821.8,201.6,830.4,201.6z"/>
<path d="M951.4,201.6c8.6,0,15.6-7,15.6-15.6s-7-15.6-15.6-15.6c-8.6,0-15.6,7-15.6,15.6S942.8,201.6,951.4,201.6z"/>
<path class="st1" d="M908.2,253.7h-34.6"/>
<linearGradient id="SVGID_00000065070328489596501320000001340408582556462007_" gradientUnits="userSpaceOnUse" x1="1485.1682" y1="8.2" x2="1485.1682" y2="698.2095" gradientTransform="matrix(1 0 0 -1 0 702)">
	<stop  offset="0" style="stop-color:#000000"/>
	<stop  offset="7.380247e-03" style="stop-color:#090909"/>
	<stop  offset="4.767627e-02" style="stop-color:#373737"/>
	<stop  offset="9.308982e-02" style="stop-color:#626262"/>
	<stop  offset="0.1419" style="stop-color:#888888"/>
	<stop  offset="0.195" style="stop-color:#A8A8A8"/>
	<stop  offset="0.2537" style="stop-color:#C4C4C4"/>
	<stop  offset="0.32" style="stop-color:#DADADA"/>
	<stop  offset="0.3974" style="stop-color:#EBEBEB"/>
	<stop  offset="0.4931" style="stop-color:#F6F6F6"/>
	<stop  offset="1" style="stop-color:#04FF00"/>
</linearGradient>
<path style="fill:url(#SVGID_00000065070328489596501320000001340408582556462007_);stroke:#000000;stroke-width:7.627;stroke-miterlimit:10;" d="
	M1696.7,530.3c-24.4-50.7-75.5-83-131.7-83.2v-54.6c23.3-21.8,41.6-52.9,52.2-89.5c4.9-16.8,11.8-32.8,19.9-48.2
	c12.5-23.8,19.6-50.9,19.6-79.6c0-94.1-75.8-170.5-169.7-171.4c-95.4-1-173.9,77.2-173.2,172.6c0.2,29.3,7.7,56.8,20.9,80.9
	c7.6,13.8,13.7,28.3,18,43.5c10.5,37.5,29.1,69.5,52.9,91.8v54.6c-56.2,0.2-107.4,32.5-131.7,83.2l-78.7,163.4h580l0,0L1696.7,530.3
	z"/>
<path class="st1" d="M1425.1,212.1c21.1,0,38.1-11.7,38.1-26s-17.1-26-38.1-26s-38.1,11.7-38.1,26S1404,212.1,1425.1,212.1z"/>
<path class="st1" d="M1546.1,212.1c21.1,0,38.1-11.7,38.1-26s-17.1-26-38.1-26s-38.1,11.7-38.1,26S1525,212.1,1546.1,212.1z"/>
<path d="M1425.1,201.6c8.6,0,15.6-7,15.6-15.6s-7-15.6-15.6-15.6c-8.6,0-15.6,7-15.6,15.6S1416.5,201.6,1425.1,201.6z"/>
<path d="M1546.1,201.6c8.6,0,15.6-7,15.6-15.6s-7-15.6-15.6-15.6c-8.6,0-15.6,7-15.6,15.6S1537.5,201.6,1546.1,201.6z"/>
<path class="st1" d="M1502.9,253.7h-34.6"/>
<ellipse class="st4" cx="1485.9" cy="329.1" rx="27" ry="39.5"/>
</svg>
