<?xml version="1.0" encoding="UTF-8"?>
<svg id="Layer_1" data-name="Layer 1" xmlns="http://www.w3.org/2000/svg" width="720" height="252" viewBox="0 0 720 252">
  <defs>
    <style>
      .cls-1 {
        fill: #e6332a;
      }
    </style>
  </defs>
  <path class="cls-1" d="M720,128.27l-49.15-84.47-20.43,2.13-30.67,92.8,21.71-2.27,24.48-81.66-8.17,.85,41.04,74.82,21.2-2.21Zm-21.92-16.91l-7.13-15-45.98,4.8-3.98,16.16,57.09-5.96Z"/>
  <path class="cls-1" d="M618.03,138.91l-46.52-79.94-19.34,2.02-29.03,87.83,20.55-2.15,23.17-77.28-7.74,.81,38.84,70.81,20.07-2.1Zm-20.74-16.01l-6.75-14.2-43.51,4.54-3.77,15.29,54.03-5.64Z"/>
  <path class="cls-1" d="M521.53,148.99l-43.89-75.42-18.24,1.9-27.38,82.86,19.39-2.02,21.86-72.91-7.3,.76,36.64,66.8,18.93-1.98Zm-19.57-15.1l-6.36-13.39-41.05,4.29-3.56,14.43,50.97-5.32Z"/>
  <path class="cls-1" d="M430.49,158.5l-41.25-70.89-17.15,1.79-25.74,77.89,18.22-1.9,20.55-68.54-6.86,.72,34.44,62.79,17.79-1.86Zm-18.39-14.19l-5.98-12.59-38.59,4.03-3.34,13.56,47.91-5Z"/>
  <path class="cls-1" d="M344.92,167.43l-38.62-66.37-16.06,1.68-24.1,72.92,17.06-1.78,19.23-64.16-6.42,.67,32.24,58.79,16.66-1.74Zm-17.22-13.29l-5.6-11.79-36.13,3.77-3.13,12.7,44.86-4.68Z"/>
  <path class="cls-1" d="M264.81,175.79l-35.99-61.84-14.96,1.56-22.46,67.94,15.9-1.66,17.92-59.79-5.98,.62,30.05,54.78,15.52-1.62Zm-16.05-12.38l-5.22-10.98-33.66,3.52-2.92,11.83,41.8-4.36Z"/>
  <path class="cls-1" d="M190.17,183.59l-33.35-57.32-13.87,1.45-20.81,62.97,14.73-1.54,16.61-55.41-5.55,.58,27.85,50.77,14.39-1.5Zm-14.87-11.48l-4.84-10.18-31.2,3.26-2.7,10.97,38.74-4.04Z"/>
  <path class="cls-1" d="M121,190.81l-30.72-52.79-12.77,1.33-19.17,58,13.57-1.42,15.3-51.04-5.11,.53,25.65,46.76,13.25-1.38Zm-13.7-10.57l-4.45-9.37-28.74,3-2.49,10.1,35.68-3.72Z"/>
  <path class="cls-1" d="M57.29,197.46l-28.09-48.27-11.68,1.22L0,203.44l12.41-1.3,13.99-46.66-4.67,.49,23.45,42.75,12.11-1.27Zm-12.52-9.66l-4.07-8.57-26.27,2.74-2.28,9.23,32.62-3.41Z"/>
  <path class="cls-1" d="M343.02,38.49L311.93,3.2l-9.44,2.91-5.79,46.65,10.03-3.09,3.91-40.81-3.78,1.16,26.36,31.49,9.8-3.02Zm-11.92-5.94l-4.77-6.42-21.25,6.54-.37,8,26.38-8.12Z"/>
  <path class="cls-1" d="M295.9,53l-29.43-33.4-8.94,2.75-5.48,44.15,9.5-2.92,3.7-38.63-3.57,1.1,24.95,29.8,9.27-2.86Zm-11.29-5.62l-4.51-6.07-20.11,6.19-.35,7.57,24.97-7.69Z"/>
  <path class="cls-1" d="M251.3,66.74l-27.76-31.51-8.43,2.6-5.17,41.65,8.96-2.76,3.5-36.44-3.37,1.04,23.54,28.12,8.75-2.69Zm-10.65-5.31l-4.26-5.73-18.97,5.84-.33,7.14,23.56-7.25Z"/>
  <path class="cls-1" d="M209.23,79.69l-26.1-29.62-7.93,2.44-4.86,39.15,8.42-2.59,3.29-34.25-3.17,.98,22.13,26.43,8.22-2.53Zm-10.01-4.99l-4-5.38-17.83,5.49-.31,6.71,22.14-6.82Z"/>
  <path class="cls-1" d="M169.68,91.87l-24.43-27.73-7.42,2.28-4.55,36.65,7.88-2.43,3.08-32.07-2.97,.91,20.72,24.74,7.7-2.37Zm-9.37-4.67l-3.74-5.04-16.7,5.14-.29,6.28,20.73-6.38Z"/>
  <path class="cls-1" d="M132.66,103.27l-22.77-25.84-6.91,2.13-4.24,34.15,7.35-2.26,2.87-29.88-2.77,.85,19.3,23.06,7.17-2.21Zm-8.73-4.35l-3.49-4.7-15.56,4.79-.27,5.85,19.32-5.95Z"/>
  <path class="cls-1" d="M98.17,113.89l-21.1-23.95-6.41,1.97-3.93,31.65,6.81-2.1,2.66-27.69-2.56,.79,17.89,21.37,6.65-2.05Zm-8.09-4.03l-3.23-4.35-14.42,4.44-.25,5.43,17.9-5.51Z"/>
  <path class="cls-1" d="M66.2,123.73l-19.43-22.06-5.9,1.82-3.62,29.15,6.27-1.93,2.45-25.51-2.36,.73,16.48,19.68,6.12-1.89Zm-7.45-3.71l-2.98-4.01-13.28,4.09-.23,5,16.49-5.08Z"/>
  <path class="cls-1" d="M36.76,132.8l-17.77-20.16-5.4,1.66-3.31,26.66,5.73-1.77,2.24-23.32-2.16,.66,15.07,17.99,5.6-1.72Zm-6.81-3.39l-2.72-3.67-12.14,3.74-.21,4.57,15.08-4.64Z"/>
  <path class="cls-1" d="M498.34,252l-16.8-45.26-10.13-.68-22.78,42.61,10.76,.72,18.82-37.71-4.05-.27,13.66,39.88,10.51,.7Zm-9.24-10.08l-2.2-7.9-22.79-1.53-3.31,7.53,28.3,1.89Z"/>
  <path class="cls-1" d="M447.78,248.62l-15.9-42.84-9.59-.64-21.56,40.33,10.19,.68,17.81-35.69-3.84-.26,12.93,37.74,9.95,.67Zm-8.75-9.54l-2.09-7.48-21.57-1.44-3.13,7.13,26.79,1.79Z"/>
  <path class="cls-1" d="M399.94,245.41l-15-40.41-9.05-.61-20.34,38.05,9.61,.64,16.8-33.67-3.62-.24,12.2,35.61,9.38,.63Zm-8.25-9l-1.97-7.06-20.35-1.36-2.95,6.73,25.27,1.69Z"/>
  <path class="cls-1" d="M354.81,242.39l-14.1-37.99-8.5-.57-19.11,35.76,9.03,.6,15.8-31.65-3.4-.23,11.47,33.47,8.82,.59Zm-7.76-8.46l-1.85-6.63-19.13-1.28-2.77,6.32,23.75,1.59Z"/>
  <path class="cls-1" d="M312.38,239.56l-13.2-35.56-7.96-.53-17.9,33.48,8.46,.57,14.79-29.63-3.18-.21,10.74,31.34,8.26,.55Zm-7.26-7.92l-1.73-6.21-17.91-1.2-2.6,5.92,22.24,1.49Z"/>
  <path class="cls-1" d="M272.67,236.9l-12.3-33.14-7.42-.5-16.67,31.2,7.88,.53,13.78-27.61-2.97-.2,10,29.2,7.7,.51Zm-6.77-7.38l-1.61-5.79-16.69-1.12-2.42,5.52,20.72,1.39Z"/>
  <path class="cls-1" d="M235.66,234.42l-11.4-30.71-6.87-.46-15.45,28.92,7.3,.49,12.77-25.59-2.75-.18,9.27,27.06,7.13,.48Zm-6.27-6.84l-1.5-5.36-15.47-1.04-2.24,5.11,19.21,1.29Z"/>
  <path class="cls-1" d="M201.37,232.13l-10.5-28.29-6.33-.42-14.23,26.63,6.73,.45,11.76-23.57-2.53-.17,8.54,24.93,6.57,.44Zm-5.78-6.3l-1.38-4.94-14.25-.95-2.07,4.71,17.69,1.18Z"/>
  <path class="cls-1" d="M169.78,230.01l-9.6-25.86-5.79-.39-13.01,24.35,6.15,.41,10.75-21.55-2.32-.16,7.81,22.79,6.01,.4Zm-5.28-5.76l-1.26-4.52-13.03-.87-1.89,4.31,16.17,1.08Z"/>
  <path class="cls-1" d="M613.85,25.56L597.66,0l-6.3,.9-8.4,29.06,6.69-.95,6.62-25.54-2.52,.36,13.57,22.67,6.53-.93Zm-6.98-4.98l-2.38-4.56-14.17,2.02-1.04,5.05,17.59-2.51Z"/>
  <path class="cls-1" d="M582.44,30.04l-15.33-24.19-5.96,.85-7.95,27.51,6.33-.9,6.26-24.18-2.38,.34,12.84,21.45,6.18-.88Zm-6.6-4.71l-2.25-4.31-13.41,1.91-.99,4.77,16.65-2.37Z"/>
  <path class="cls-1" d="M552.7,34.28l-14.46-22.82-5.62,.8-7.5,25.95,5.97-.85,5.91-22.81-2.25,.32,12.12,20.24,5.83-.83Zm-6.23-4.44l-2.13-4.07-12.65,1.8-.93,4.5,15.7-2.24Z"/>
  <path class="cls-1" d="M524.65,38.28l-13.59-21.45-5.28,.75-7.05,24.39,5.61-.8,5.55-21.44-2.11,.3,11.39,19.02,5.48-.78Zm-5.86-4.18l-2-3.82-11.89,1.7-.88,4.23,14.76-2.11Z"/>
  <path class="cls-1" d="M498.29,42.04l-12.72-20.08-4.95,.71-6.6,22.84,5.26-.75,5.2-20.07-1.98,.28,10.66,17.81,5.13-.73Zm-5.48-3.91l-1.87-3.58-11.13,1.59-.82,3.96,13.82-1.97Z"/>
  <path class="cls-1" d="M473.61,45.56l-11.86-18.71-4.61,.66-6.15,21.28,4.9-.7,4.84-18.7-1.84,.26,9.94,16.59,4.78-.68Zm-5.11-3.64l-1.74-3.34-10.37,1.48-.76,3.69,12.88-1.84Z"/>
  <path class="cls-1" d="M450.61,48.84l-10.99-17.34-4.27,.61-5.7,19.72,4.54-.65,4.49-17.33-1.71,.24,9.21,15.38,4.43-.63Zm-4.73-3.38l-1.62-3.09-9.61,1.37-.71,3.42,11.94-1.7Z"/>
  <path class="cls-1" d="M429.3,51.88l-10.12-15.97-3.93,.56-5.25,18.16,4.18-.6,4.14-15.97-1.57,.22,8.48,14.17,4.08-.58Zm-4.36-3.11l-1.49-2.85-8.85,1.26-.65,3.15,10.99-1.57Z"/>
  <path class="cls-1" d="M409.67,54.68l-9.25-14.6-3.6,.51-4.8,16.61,3.82-.55,3.78-14.6-1.44,.21,7.75,12.95,3.73-.53Zm-3.99-2.84l-1.36-2.6-8.09,1.15-.6,2.88,10.05-1.43Z"/>
  <path class="cls-1" d="M586.79,195.38l-5.27-14.21-3.18-.21-7.15,13.38,3.38,.23,5.91-11.84-1.27-.09,4.29,12.52,3.3,.22Zm-2.9-3.16l-.69-2.48-7.15-.48-1.04,2.36,8.88,.59Z"/>
  <path class="cls-1" d="M570.92,194.32l-4.99-13.45-3.01-.2-6.77,12.66,3.2,.21,5.59-11.2-1.2-.08,4.06,11.85,3.12,.21Zm-2.75-2.99l-.65-2.35-6.77-.45-.98,2.24,8.41,.56Z"/>
  <path class="cls-1" d="M555.91,193.32l-4.71-12.68-2.84-.19-6.38,11.94,3.02,.2,5.27-10.57-1.14-.08,3.83,11.18,2.95,.2Zm-2.59-2.82l-.62-2.21-6.39-.43-.93,2.11,7.93,.53Z"/>
  <path class="cls-1" d="M541.74,192.37l-4.43-11.92-2.67-.18-6,11.23,2.84,.19,4.96-9.93-1.07-.07,3.6,10.51,2.77,.19Zm-2.44-2.65l-.58-2.08-6-.4-.87,1.98,7.46,.5Z"/>
  <path class="cls-1" d="M528.42,191.48l-4.14-11.16-2.5-.17-5.62,10.51,2.65,.18,4.64-9.3-1-.07,3.37,9.84,2.59,.17Zm-2.28-2.49l-.54-1.95-5.62-.38-.82,1.86,6.98,.47Z"/>
  <path class="cls-1" d="M515.96,190.64l-3.86-10.4-2.33-.16-5.23,9.79,2.47,.17,4.32-8.67-.93-.06,3.14,9.16,2.42,.16Zm-2.12-2.32l-.51-1.82-5.24-.35-.76,1.73,6.5,.44Z"/>
  <path class="cls-1" d="M504.34,189.87l-3.58-9.64-2.16-.14-4.85,9.08,2.29,.15,4.01-8.03-.86-.06,2.91,8.49,2.24,.15Zm-1.97-2.15l-.47-1.68-4.86-.33-.7,1.6,6.03,.4Z"/>
  <path class="cls-1" d="M493.58,189.15l-3.3-8.88-1.99-.13-4.47,8.36,2.11,.14,3.69-7.4-.79-.05,2.68,7.82,2.06,.14Zm-1.81-1.98l-.43-1.55-4.47-.3-.65,1.48,5.55,.37Z"/>
  <path class="cls-1" d="M483.66,188.48l-3.01-8.12-1.82-.12-4.08,7.64,1.93,.13,3.38-6.76-.73-.05,2.45,7.15,1.89,.13Zm-1.66-1.81l-.4-1.42-4.09-.27-.59,1.35,5.08,.34Z"/>
</svg>