<?xml version="1.0" encoding="utf-8"?>
<!-- Generator: Adobe Illustrator 26.4.1, SVG Export Plug-In . SVG Version: 6.00 Build 0)  -->
<svg version="1.1" id="Layer_1" xmlns="http://www.w3.org/2000/svg" xmlns:xlink="http://www.w3.org/1999/xlink" x="0px" y="0px"
	 viewBox="0 0 650 200" style="enable-background:new 0 0 650 200;" xml:space="preserve">
<style type="text/css">
	.st0{fill:#F39200;}
	.st1{fill:#82368C;}
	.st2{enable-background:new    ;}
	.st3{fill:#FFFFFF;}
</style>
<path class="st0" d="M28.4,0h593.2C637.3,0,650,12.7,650,28.4v143.2c0,15.7-12.7,28.4-28.4,28.4H28.4C12.7,200,0,187.3,0,171.6V28.4
	C0,12.7,12.7,0,28.4,0z"/>
<g>
	<path class="st1" d="M120.1,76.5c10-8,1.9,87.6,4.4,88.1C114.5,172.6,122.6,77.1,120.1,76.5z"/>
	<path class="st1" d="M137,76.5c10-8,1.9,87.6,4.4,88.1C131.4,172.6,139.5,77.1,137,76.5z"/>
	<path class="st1" d="M319.9,76.5c10-8,2,87.6,4.4,88.1C314.3,172.6,322.3,77.1,319.9,76.5z"/>
	<path class="st1" d="M430.8,76.5c10-8,2,87.6,4.4,88.1C425.1,172.6,433.2,77.1,430.8,76.5z"/>
	<path class="st1" d="M456.5,76.5c10-8,2,87.6,4.4,88.1C450.9,172.6,458.9,77.1,456.5,76.5z"/>
	<path class="st1" d="M145.8,76.5c10-8,1.9,87.6,4.4,88.1C140.2,172.6,148.3,77.1,145.8,76.5z"/>
	<path class="st1" d="M328.7,76.5c10-8,2,87.6,4.4,88.1C323.1,172.6,331.1,77.1,328.7,76.5z"/>
	<path class="st1" d="M439.6,76.5c10-8,2,87.6,4.4,88.1C434,172.6,442,77.1,439.6,76.5z"/>
	<path class="st1" d="M465.3,76.5c10-8,2,87.6,4.4,88.1C459.7,172.6,467.7,77.1,465.3,76.5z"/>
	<path class="st1" d="M214.8,76.5c10-8,1.9,87.6,4.4,88.1C209.2,172.6,217.3,77.1,214.8,76.5z"/>
	<path class="st1" d="M223.7,76.5c8.4-6.9,1.6,87.8,3.7,88.1C218.9,171.5,225.8,76.8,223.7,76.5z"/>
	<path class="st1" d="M154.6,76.5c10-8,1.9,87.6,4.4,88.1C149,172.6,157.1,77.1,154.6,76.5z"/>
	<path class="st1" d="M337.5,76.5c10-8,2,87.6,4.4,88.1C331.9,172.6,339.9,77.1,337.5,76.5z"/>
	<path class="st1" d="M448.4,76.5c10-8,2,87.6,4.4,88.1C442.8,172.6,450.8,77.1,448.4,76.5z"/>
	<path class="st1" d="M474.1,76.5c10-8,2,87.6,4.4,88.1C468.5,172.6,476.5,77.1,474.1,76.5z"/>
	<rect x="163.4" y="76.5" class="st1" width="13.9" height="88.1"/>
	<rect x="346.3" y="76.5" class="st1" width="14" height="88.1"/>
	<rect x="482.9" y="76.5" class="st1" width="14" height="88.1"/>
	<rect x="265.5" y="76.5" class="st1" width="14" height="88.1"/>
	<rect x="283.9" y="76.5" class="st1" width="14" height="88.1"/>
	<rect x="302.2" y="76.5" class="st1" width="14" height="88.1"/>
	<rect x="181.1" y="76.5" class="st1" width="29.4" height="88.1"/>
	<rect x="231.7" y="76.5" class="st1" width="29.4" height="88.1"/>
	<rect x="363.9" y="76.5" class="st1" width="29.4" height="88.1"/>
	<rect x="500.5" y="76.5" class="st1" width="29.4" height="88.1"/>
	<rect x="397.7" y="76.5" class="st1" width="28.6" height="88.1"/>
</g>
<g class="st2">
	<path class="st3" d="M132.9,30.1c1.6,0.8,2.9,2.1,3.8,3.7c0.9,1.6,1.4,3.5,1.4,5.7v11.6h-7.4v-4.4h-6.9v4.4h-7.2V39.6
		c0-2.2,0.5-4.1,1.4-5.7c0.9-1.6,2.2-2.8,3.8-3.7c1.6-0.8,3.5-1.3,5.6-1.3S131.3,29.3,132.9,30.1z M130.7,41.2v-2.3
		c0-1.3-0.3-2.4-1-3.1c-0.6-0.7-1.5-1-2.5-1s-1.9,0.3-2.5,1c-0.6,0.7-1,1.7-1,3.1v2.3H130.7z"/>
	<path class="st3" d="M158.4,38.1c1.4,1.4,2.1,3.2,2.1,5.6c0,1.6-0.4,3-1.3,4.2c-0.9,1.2-2,2.2-3.5,2.8c-1.5,0.7-3.2,1-5,1
		c-3,0-5.5-0.9-7.3-2.7c-1.9-1.8-2.8-4.6-2.8-8.4c0-7.1,3.2-11.2,9.5-12.3l8.5-1.5l0.9,5.8l-7.2,1.3c-1.7,0.3-2.9,0.7-3.6,1.3
		c-0.7,0.6-1.2,1.5-1.4,2.6c1.5-1.2,3.2-1.7,5.3-1.7C155,36,157,36.7,158.4,38.1z M152.6,45.6c0.5-0.6,0.7-1.2,0.7-2
		c0-0.9-0.2-1.5-0.7-2c-0.5-0.5-1.1-0.7-1.9-0.7c-0.8,0-1.5,0.2-2,0.7c-0.5,0.5-0.7,1.2-0.7,2c0,0.8,0.3,1.5,0.8,2
		c0.5,0.5,1.2,0.8,2,0.8C151.5,46.5,152.1,46.2,152.6,45.6z"/>
	<path class="st3" d="M166.3,50.4c-1.5-0.8-2.7-1.8-3.5-3.1c-0.9-1.3-1.3-2.9-1.3-4.6c0-1.7,0.4-3.2,1.3-4.6c0.9-1.3,2-2.4,3.5-3.1
		c1.5-0.7,3.2-1.1,5.1-1.1c1.9,0,3.6,0.4,5.1,1.1c1.5,0.7,2.7,1.8,3.5,3.1s1.3,2.9,1.3,4.6c0,1.7-0.4,3.2-1.3,4.6s-2,2.4-3.5,3.1
		c-1.5,0.8-3.2,1.1-5.1,1.1C169.6,51.5,167.9,51.1,166.3,50.4z M173.4,45.1c0.5-0.6,0.8-1.4,0.8-2.5s-0.3-1.9-0.8-2.5
		c-0.5-0.6-1.2-0.9-2-0.9s-1.5,0.3-2,0.9c-0.5,0.6-0.8,1.4-0.8,2.5s0.3,1.9,0.8,2.5c0.5,0.6,1.2,0.9,2,0.9S172.9,45.7,173.4,45.1z"
		/>
	<path class="st3" d="M183.5,34.1h7v6h4.8v-6h7v17h-7v-5.5h-4.8v5.5h-7V34.1z"/>
	<path class="st3" d="M217.1,46c0.5-0.2,1.1-0.5,1.7-1l3.7,3.7c-1.7,1.8-4.2,2.7-7.4,2.7c-2.1,0-3.9-0.4-5.4-1.1
		c-1.6-0.8-2.8-1.8-3.6-3.2c-0.9-1.4-1.3-2.9-1.3-4.5c0-1.7,0.4-3.2,1.3-4.6c0.9-1.3,2-2.4,3.5-3.1c1.5-0.7,3.2-1.1,5-1.1
		c1.7,0,3.2,0.3,4.6,1c1.4,0.7,2.5,1.7,3.4,3c0.8,1.3,1.2,2.9,1.2,4.7L212,44.8c0.5,1,1.6,1.5,3.1,1.5
		C215.9,46.3,216.6,46.2,217.1,46z M212.5,39.3c-0.5,0.5-0.8,1.2-0.9,2.1l5.5-1.1c-0.2-0.5-0.5-1-1-1.3c-0.4-0.3-1-0.5-1.6-0.5
		C213.7,38.6,213,38.9,212.5,39.3z"/>
	<path class="st3" d="M242.4,51.2l0-7.6l-3.6,6.3h-3l-3.5-6.5v7.8H226v-17h7.4l4.1,7.9l4.6-7.9h6.6l0.1,17H242.4z"/>
	<path class="st3" d="M263.4,46c0.5-0.2,1.1-0.5,1.7-1l3.7,3.7c-1.7,1.8-4.2,2.7-7.4,2.7c-2.1,0-3.9-0.4-5.4-1.1
		c-1.6-0.8-2.8-1.8-3.6-3.2c-0.9-1.4-1.3-2.9-1.3-4.5c0-1.7,0.4-3.2,1.3-4.6c0.9-1.3,2-2.4,3.5-3.1c1.5-0.7,3.2-1.1,5-1.1
		c1.7,0,3.2,0.3,4.6,1c1.4,0.7,2.5,1.7,3.4,3c0.8,1.3,1.2,2.9,1.2,4.7l-11.7,2.2c0.5,1,1.6,1.5,3.1,1.5
		C262.3,46.3,262.9,46.2,263.4,46z M258.9,39.3c-0.5,0.5-0.8,1.2-0.9,2.1l5.5-1.1c-0.2-0.5-0.5-1-1-1.3c-0.4-0.3-1-0.5-1.6-0.5
		C260,38.6,259.4,38.9,258.9,39.3z"/>
	<path class="st3" d="M272.4,34.1h7v6h4.8v-6h7v17h-7v-5.5h-4.8v5.5h-7V34.1z"/>
	<path class="st3" d="M322,35.7c1.2,1.3,1.9,3.2,1.9,5.7v9.7h-7v-8.5c0-2-0.6-2.9-1.9-2.9c-0.7,0-1.2,0.2-1.6,0.7
		c-0.4,0.5-0.6,1.3-0.6,2.4v8.3h-7v-8.5c0-2-0.6-2.9-1.9-2.9c-0.7,0-1.2,0.2-1.6,0.7c-0.4,0.5-0.6,1.3-0.6,2.4v8.3h-7v-17h6.7v1.6
		c1.3-1.3,2.9-1.9,4.8-1.9c1.1,0,2.2,0.2,3.1,0.6c0.9,0.4,1.7,1.1,2.2,1.9c0.7-0.8,1.5-1.5,2.5-1.9c1-0.4,2-0.7,3.2-0.7
		C319.1,33.8,320.8,34.5,322,35.7z"/>
	<path class="st3" d="M355.5,31.4c1.4,1.7,2.1,4.1,2.1,7.2v12.6h-7.4V38.8c0-1.3-0.3-2.3-0.9-3c-0.6-0.7-1.4-1-2.4-1
		s-1.8,0.4-2.5,1.1c-0.6,0.7-1,1.8-1,3.1v12.2h-7.4V29.4h7.1v2.3c1.5-1.9,3.5-2.8,6.1-2.8C352.1,28.9,354.1,29.7,355.5,31.4z
		 M362.2,38.9c-1-0.4-1.7-1.1-2.3-1.9c-0.5-0.8-0.8-1.7-0.8-2.7s0.3-1.9,0.8-2.7c0.5-0.8,1.3-1.4,2.3-1.9c1-0.4,2.1-0.7,3.3-0.7
		c1.2,0,2.3,0.2,3.3,0.7c1,0.4,1.7,1.1,2.2,1.9s0.8,1.7,0.8,2.7s-0.3,1.9-0.8,2.7s-1.3,1.4-2.2,1.9c-1,0.4-2,0.7-3.3,0.7
		C364.3,39.6,363.2,39.4,362.2,38.9z M359.8,41.1h11.4v4.1h-11.4V41.1z M364.3,33c-0.3,0.3-0.5,0.8-0.5,1.4c0,0.6,0.2,1,0.5,1.4
		c0.3,0.3,0.7,0.5,1.2,0.5c0.5,0,0.9-0.2,1.2-0.5c0.3-0.3,0.5-0.8,0.5-1.4c0-0.6-0.2-1.1-0.5-1.4c-0.3-0.3-0.7-0.5-1.2-0.5
		C365,32.5,364.6,32.6,364.3,33z"/>
	<path class="st3" d="M392.3,41.8c0.5,0.8,0.8,1.8,0.8,2.9c0,1.4-0.4,2.6-1.2,3.7s-2,1.9-3.5,2.4s-3.2,0.9-5.1,0.9
		c-1.9,0-3.6-0.3-5.1-0.9c-1.5-0.6-2.6-1.4-3.5-2.4c-0.8-1.1-1.2-2.3-1.2-3.7c0-1.1,0.3-2,0.8-2.9c0.5-0.8,1.2-1.6,2.2-2.1
		c-1.4-1.1-2.2-2.6-2.2-4.3c0-1.3,0.4-2.5,1.1-3.4c0.8-1,1.8-1.7,3.2-2.3s2.9-0.8,4.7-0.8c1.8,0,3.3,0.3,4.7,0.8
		c1.4,0.5,2.4,1.3,3.2,2.3c0.8,1,1.1,2.1,1.1,3.4c0,1.7-0.7,3.2-2.2,4.3C391.1,40.3,391.8,41,392.3,41.8z M385.1,46.1
		c0.4-0.4,0.7-1,0.7-1.7s-0.2-1.2-0.7-1.7c-0.4-0.4-1-0.6-1.7-0.6c-0.7,0-1.3,0.2-1.7,0.6c-0.4,0.4-0.7,1-0.7,1.7s0.2,1.2,0.7,1.7
		c0.4,0.4,1,0.6,1.7,0.6C384,46.7,384.6,46.5,385.1,46.1z M382.1,34.3c-0.3,0.3-0.5,0.8-0.5,1.4c0,0.6,0.2,1,0.5,1.4
		s0.7,0.5,1.3,0.5c0.5,0,0.9-0.2,1.3-0.5c0.3-0.3,0.5-0.8,0.5-1.4c0-0.6-0.2-1-0.5-1.4c-0.3-0.3-0.7-0.5-1.3-0.5
		C382.8,33.8,382.4,34,382.1,34.3z"/>
	<path class="st3" d="M413.5,41.8c0.5,0.8,0.8,1.8,0.8,2.9c0,1.4-0.4,2.6-1.2,3.7c-0.8,1.1-2,1.9-3.5,2.4s-3.2,0.9-5.1,0.9
		s-3.6-0.3-5.1-0.9s-2.6-1.4-3.5-2.4s-1.2-2.3-1.2-3.7c0-1.1,0.3-2,0.8-2.9c0.5-0.8,1.2-1.6,2.2-2.1c-1.4-1.1-2.1-2.6-2.1-4.3
		c0-1.3,0.4-2.5,1.1-3.4c0.8-1,1.8-1.7,3.2-2.3c1.4-0.5,2.9-0.8,4.7-0.8s3.3,0.3,4.7,0.8s2.4,1.3,3.2,2.3c0.8,1,1.1,2.1,1.1,3.4
		c0,1.7-0.7,3.2-2.1,4.3C412.2,40.3,413,41,413.5,41.8z M406.2,46.1c0.4-0.4,0.7-1,0.7-1.7s-0.2-1.2-0.7-1.7c-0.4-0.4-1-0.6-1.7-0.6
		s-1.3,0.2-1.7,0.6c-0.4,0.4-0.7,1-0.7,1.7s0.2,1.2,0.7,1.7c0.4,0.4,1,0.6,1.7,0.6S405.7,46.5,406.2,46.1z M403.2,34.3
		c-0.3,0.3-0.5,0.8-0.5,1.4c0,0.6,0.2,1,0.5,1.4c0.3,0.3,0.7,0.5,1.3,0.5c0.5,0,0.9-0.2,1.3-0.5s0.5-0.8,0.5-1.4
		c0-0.6-0.2-1-0.5-1.4s-0.7-0.5-1.3-0.5C403.9,33.8,403.5,34,403.2,34.3z"/>
	<path class="st3" d="M437.1,47.4h-2.9v3.7H427v-3.7h-11.3v-4.7l9.3-13.4h7.5l-8.2,12.4h3v-3.3h6.9v3.3h2.9V47.4z"/>
	<path class="st3" d="M453.7,37.9c1.1,0.6,2.1,1.4,2.7,2.5s1,2.3,1,3.6c0,1.5-0.4,2.9-1.2,4c-0.8,1.2-1.8,2.1-3.2,2.7
		c-1.4,0.6-2.8,0.9-4.5,0.9c-2.1,0-3.9-0.4-5.5-1.2c-1.6-0.8-2.8-2-3.7-3.6c-0.9-1.6-1.3-3.6-1.3-5.9c0-2.5,0.5-4.7,1.5-6.5
		c1-1.8,2.4-3.2,4.2-4.2c1.8-1,3.9-1.4,6.3-1.4c1.3,0,2.6,0.2,3.7,0.5c1.2,0.3,2.2,0.7,3,1.3l-2.6,5.1c-1.1-0.8-2.4-1.2-4-1.2
		c-1.3,0-2.3,0.3-3.1,1c-0.8,0.6-1.4,1.6-1.6,2.8c1.1-0.8,2.6-1.2,4.3-1.2C451.3,37.1,452.5,37.4,453.7,37.9z M449.7,46
		c0.4-0.4,0.6-0.9,0.6-1.6s-0.2-1.2-0.6-1.6c-0.4-0.4-1-0.6-1.6-0.6c-0.7,0-1.2,0.2-1.6,0.6c-0.4,0.4-0.6,1-0.6,1.6s0.2,1.2,0.6,1.6
		c0.4,0.4,1,0.6,1.6,0.6C448.7,46.6,449.3,46.4,449.7,46z"/>
	<path class="st3" d="M476.2,45.5v5.7h-17.5v-4.5l7.9-7.3c0.7-0.6,1.1-1.2,1.4-1.7s0.3-0.9,0.3-1.3c0-0.5-0.2-1-0.5-1.3
		c-0.4-0.3-0.9-0.5-1.6-0.5c-0.7,0-1.3,0.2-1.9,0.5c-0.6,0.4-1,0.9-1.3,1.5l-5.5-2.8c0.8-1.6,2-2.8,3.6-3.7c1.6-0.9,3.5-1.4,5.8-1.4
		c1.7,0,3.2,0.3,4.6,0.8c1.3,0.6,2.4,1.4,3.1,2.4c0.7,1,1.1,2.2,1.1,3.6c0,1.2-0.3,2.3-0.8,3.4c-0.5,1-1.5,2.2-3,3.6l-3.1,2.8H476.2
		z"/>
</g>
<g class="st2">
	<path class="st3" d="M493.8,40.3c0.9,1.1,1.4,2.4,1.4,3.9c0,1.3-0.4,2.5-1.1,3.7c-0.7,1.1-1.8,2.1-3.3,2.8s-3.4,1.1-5.6,1.1
		c-1.5,0-3.1-0.2-4.6-0.5s-2.9-0.8-4-1.5l2.5-5.4c0.9,0.5,1.9,0.9,2.9,1.2c1,0.3,2,0.4,3,0.4c0.9,0,1.5-0.1,2.1-0.4s0.8-0.7,0.8-1.2
		c0-1-0.9-1.5-2.6-1.5h-2.9v-4.5l3.2-3.3h-7.8v-5.5H494v4.5l-4.1,4.1C491.6,38.4,492.9,39.2,493.8,40.3z"/>
</g>
<g class="st2">
	<path class="st3" d="M512.2,39c1.4,1.3,2.2,3,2.2,5c0,1.4-0.4,2.6-1.1,3.8s-1.8,2.1-3.3,2.8c-1.5,0.7-3.4,1.1-5.6,1.1
		c-1.5,0-3.1-0.2-4.6-0.5c-1.5-0.3-2.9-0.8-4-1.5l2.5-5.4c0.9,0.5,1.9,0.9,2.9,1.2c1,0.3,2,0.4,2.9,0.4c0.9,0,1.5-0.2,2.1-0.5
		c0.5-0.3,0.8-0.7,0.8-1.3c0-0.5-0.2-0.9-0.7-1.2c-0.5-0.3-1.3-0.4-2.6-0.4h-6.3l1.1-13.2h14.5v5.5h-8.4l-0.2,2.2h1.1
		C508.5,37.1,510.7,37.7,512.2,39z"/>
</g>
<g class="st2">
	<path class="st3" d="M531.3,39c1.4,1.3,2.2,3,2.2,5c0,1.4-0.4,2.6-1.1,3.8c-0.7,1.2-1.8,2.1-3.3,2.8s-3.4,1.1-5.6,1.1
		c-1.5,0-3.1-0.2-4.6-0.5s-2.9-0.8-4-1.5l2.5-5.4c0.9,0.5,1.9,0.9,2.9,1.2c1,0.3,2,0.4,2.9,0.4c0.9,0,1.5-0.2,2.1-0.5
		c0.5-0.3,0.8-0.7,0.8-1.3c0-0.5-0.2-0.9-0.7-1.2c-0.5-0.3-1.3-0.4-2.6-0.4h-6.3l1.1-13.2H532v5.5h-8.4l-0.2,2.2h1.1
		C527.6,37.1,529.8,37.7,531.3,39z"/>
</g>
</svg>
