<?xml version="1.0" encoding="UTF-8"?>
<svg id="Layer_1" data-name="Layer 1" xmlns="http://www.w3.org/2000/svg" width="300" height="300" viewBox="0 0 300 300">
  <defs>
    <style>
      .cls-1 {
        fill: blue;
      }
    </style>
  </defs>
  <path class="cls-1" d="M128.18,41.21c-18.11-.82-44.24,1.04-59.45,18.55-6.16,7.09-8.18,14.07-15.22,56.35-8.45,51-8.95,61.7-17.18,76.26-10.25,18.11-25.15,29.18-36.33,35.78,10.04-2.51,25.25-8.02,37.69-21.22,8.18-8.73,13.31-18.6,21.16-47.08,15.27-55.37,10.96-71.68,25.75-84.88,6.98-6.22,19.42-12.76,42.93-11.29"/>
  <path class="cls-1" d="M126.87,71.05c-13.64,3.44-30.93,10.36-40.31,25.86-9.16,15.16-3.71,26.95-3.98,51.71-.6,54.93-28.2,66.22-20.51,108.06,.82,4.47,7.36,39.93,26.45,43.09,21.05,3.49,41.02-35.24,39.65-36.44-1.25-1.15-20.89,29.02-37.69,24.55-11.84-3.16-17.18-22.2-18.49-33.17-1.47-12.38,1.75-18.44,11.24-47.73,10.64-32.89,15.93-49.31,16.53-59.02,1.25-21.22-3.82-32.73,4.64-42.44,6.22-7.15,15.98-8.89,23.13-9.27"/>
  <path class="cls-1" d="M156.6,40.56c50.51,10.04,71.89,.44,81.93-10.58,7.58-8.35,10.47-19.42,23.13-25.86,13.25-6.76,28.15-3.87,38.35-.65-8.62-1.04-20.29-.87-29.73,5.95-9.55,6.93-9.65,15.55-19.15,26.51-9.82,11.35-21.65,15.87-30.38,19.2-28.75,11.02-55.15,3.6-64.09,.65"/>
  <path class="cls-1" d="M154.64,69.09c11.13,.87,37.8,4.53,58.15,25.2,35.07,35.62,32.35,102.5,5.29,121.32-22.69,15.82-61.36-3.11-61.47-2.67-.11,.55,21.44,9.55,42.27,1.31,3.22-1.25,13.31-5.4,20.51-15.93,7.36-10.75,7.36-22.04,7.25-29.84-.22-18.17-7.31-43.09-28.42-60.33-17.4-14.18-36.33-16.69-44.29-17.24l.65-21.87,.05,.05Z"/>
</svg>